<svg width="520" height="400" viewBox="0 0 520 400" fill="none" xmlns="http://www.w3.org/2000/svg">
<path d="M372.852 251.774C370.948 250.755 369.235 249.381 367.76 247.808C366.587 246.538 365.433 244.973 364.968 243.319C364.75 242.553 364.745 241.787 364.9 241.074C365.127 239.969 365.809 238.69 366.27 237.662C366.69 236.734 367.054 235.763 367.248 234.761C367.41 233.943 367.454 233.123 367.448 232.297C367.41 229.326 366.739 225.826 366.757 222.856C366.765 221.419 366.909 219.925 367.459 218.588C367.815 217.708 368.369 216.935 369.036 216.356C370.363 215.223 371.896 214.673 373.52 214.195C376.828 213.231 381.695 212.777 385.126 212.239C386.971 211.947 388.88 211.613 390.666 211.065C391.849 210.708 393.13 210.187 394.135 209.499C395.223 208.753 395.984 207.839 396.512 206.706C396.986 205.677 397.205 204.539 397.223 203.41C397.246 201.887 396.925 200.367 396.374 198.951C395.787 197.448 394.932 196.044 393.847 194.849C392.55 193.414 390.948 192.271 389.309 191.258C387.127 189.919 383.713 188.135 381.612 186.697C380.054 185.649 378.564 184.452 377.273 183.086C375.219 180.899 373.553 178.333 372.354 175.584C371.661 173.961 371.11 172.243 370.945 170.48C370.839 169.337 370.922 168.054 371.44 167.043C371.488 166.952 371.513 166.907 371.513 166.907C371.564 166.819 371.591 166.775 371.591 166.775C371.645 166.69 371.673 166.647 371.673 166.647C371.731 166.564 371.76 166.524 371.76 166.524C371.821 166.444 371.852 166.405 371.852 166.405C371.916 166.328 371.95 166.29 371.95 166.29C372.029 166.205 372.069 166.163 372.069 166.163C372.152 166.082 372.195 166.042 372.195 166.042C372.283 165.965 372.327 165.927 372.327 165.927C372.925 165.43 373.641 165.16 374.324 164.984C375.079 164.795 375.842 164.717 376.616 164.686C378.599 164.617 380.623 164.861 382.583 165.146C387.751 165.92 394.222 167.525 399.422 167.884C400.91 167.983 402.435 168.017 403.916 167.834C404.986 167.7 406.192 167.414 407.042 166.81C407.133 166.744 407.162 166.721 407.162 166.721C407.248 166.652 407.276 166.628 407.276 166.628C407.358 166.556 407.384 166.532 407.384 166.532C407.461 166.457 407.486 166.432 407.486 166.432C407.559 166.354 407.582 166.328 407.582 166.328C407.65 166.248 407.672 166.22 407.672 166.22C407.735 166.137 407.756 166.108 407.756 166.108C407.814 166.022 407.833 165.992 407.833 165.992C407.887 165.903 407.904 165.873 407.904 165.873C407.953 165.781 407.968 165.75 407.968 165.75C407.998 165.687 408.012 165.655 408.012 165.655C408.039 165.59 408.052 165.557 408.052 165.557C408.077 165.491 408.088 165.457 408.088 165.457C408.11 165.389 408.121 165.355 408.121 165.355C408.141 165.286 408.15 165.251 408.15 165.251C408.167 165.18 408.175 165.144 408.175 165.144C408.189 165.071 408.196 165.035 408.196 165.035C408.208 164.961 408.213 164.92 408.213 164.92C408.223 164.837 408.227 164.795 408.227 164.795C408.234 164.71 408.236 164.668 408.236 164.668C408.268 163.806 408.08 163.054 407.844 162.248C407.325 160.56 406.222 158.076 405.615 156.406C405.226 155.326 404.867 154.209 404.696 153.072C404.547 152.117 404.551 151.029 404.891 150.144C405.516 148.548 406.86 147.543 408.161 146.644C410.386 145.115 413.317 143.841 415.041 141.732C415.96 140.602 416.228 139.28 416.178 137.899C416.074 135.226 414.934 132.265 414.333 129.674C414.092 128.642 413.891 127.579 413.89 126.517C413.823 122.975 417.039 120.815 419.369 118.688C420.197 117.941 421.004 117.134 421.653 116.223C422.359 115.26 423.14 113.802 423.756 112.78C424.14 112.14 424.642 111.41 425.164 110.914C425.252 110.831 425.297 110.791 425.297 110.791C425.674 110.457 426.043 110.23 426.452 110.069C427.508 109.68 428.541 109.761 429.578 109.875C430.875 110.027 433.288 110.592 434.593 110.856C436.146 111.159 437.746 111.413 439.332 111.296C440.611 111.2 441.862 110.828 443.061 110.386C444.439 109.873 446.208 109.105 447.635 108.808C448.763 108.568 449.791 108.526 450.891 108.739C452.824 109.143 454.57 110.176 456.247 111.179C458.094 112.297 460.847 114.17 462.769 115.067C463.822 115.57 464.934 116.003 466.097 116.152C468.048 116.406 469.792 115.63 471.41 114.702C473.17 113.684 475.105 112.319 476.976 111.518C478.746 110.749 480.659 110.318 482.57 110.086C484.88 109.813 487.24 109.823 489.555 110.044" stroke="#E9896A" stroke-width="2" stroke-miterlimit="10" stroke-linecap="round" stroke-linejoin="round"/>
<path d="M102.372 244.545C103.35 246.57 104.357 248.817 105.75 250.586C106.794 251.946 108.224 253.127 109.772 253.749C111.913 254.621 114.269 254.84 116.553 255.025C121.656 255.39 127.224 255.355 131.992 257.393C135.105 258.719 137.847 260.822 140.202 263.232C143.448 266.565 146.055 270.507 148.286 274.575" stroke="#E9896A" stroke-width="2" stroke-miterlimit="10" stroke-linecap="round" stroke-linejoin="round"/>
<path d="M366.633 333.416C366.867 332.637 367.351 331.075 367.599 330.301C369.628 324.176 373.073 314.38 374.654 308.24L377.556 296.721C378.459 293.361 379.445 289.904 380.881 286.731C381.705 284.948 382.684 283.18 384.091 281.788C386.18 279.709 389.049 279.131 391.86 278.968L395.068 278.821" stroke="#E9896A" stroke-width="2" stroke-miterlimit="10" stroke-linecap="round" stroke-linejoin="round"/>
<path d="M335.476 333.279L337.599 327.334C338.683 324.406 339.907 321.365 341.331 318.591C342.652 315.96 345.391 311.626 346.924 309.055C348.296 306.716 349.601 304.255 350.638 301.748C351.537 299.601 352.25 297.311 352.837 295.06C353.836 291.279 354.746 286.576 355.906 282.851C356.387 281.336 356.944 279.814 357.745 278.435C358.203 277.64 358.853 276.793 359.549 276.245C361.301 274.843 363.5 274.637 365.638 274.614L368.374 274.641" stroke="#E9896A" stroke-width="2" stroke-miterlimit="10" stroke-linecap="round" stroke-linejoin="round"/>
<path d="M7.63403 327.249C8.90503 330.444 10.306 333.684 12.427 336.417C13.69 338.036 15.262 339.475 17.162 340.298C19.217 341.206 21.531 341.229 23.732 341.025C27.146 340.707 30.903 339.69 34.308 339.306C35.585 339.173 36.938 339.108 38.194 339.391C40.576 339.896 41.891 341.999 42.92 343.971C43.962 345.978 44.997 348.328 46.596 349.939C47.814 351.193 49.253 352.135 50.805 352.913C53.109 354.061 55.629 354.817 58.112 355.47" stroke="#E9896A" stroke-width="2" stroke-miterlimit="10" stroke-linecap="round" stroke-linejoin="round"/>
<path d="M502.416 119.91C502.964 121.923 503.344 124.018 503.251 126.112C503.145 129.216 502.037 132.455 499.889 134.719C498.792 135.886 497.608 136.67 496.211 137.341C493.654 138.545 490.836 139.128 488.053 139.529C484.419 140.047 480.285 140.198 476.603 140.32C473.143 140.392 464.46 140.672 461.116 140.584C457.607 140.515 454.011 140.322 450.576 139.567C448.833 139.192 447.123 138.597 445.494 137.876C443.397 136.949 441.018 135.721 438.788 135.165C437.777 134.911 436.724 134.771 435.681 134.78C433.411 134.804 430.924 135.44 428.7 135.862C427.482 136.082 426.091 136.33 424.884 136.144C424.671 136.109 424.501 136.064 424.363 136.02C424.298 135.998 424.266 135.987 424.266 135.987C424.203 135.963 424.172 135.951 424.172 135.951C424.081 135.911 424.051 135.898 424.051 135.898C423.963 135.854 423.934 135.839 423.934 135.839C423.85 135.791 423.822 135.774 423.822 135.774C423.741 135.721 423.715 135.703 423.715 135.703C423.638 135.646 423.613 135.626 423.613 135.626C423.522 135.548 423.505 135.532 423.505 135.532C423.42 135.447 423.403 135.43 423.403 135.43C423.323 135.339 423.308 135.32 423.308 135.32C423.248 135.243 423.233 135.223 423.233 135.223C423.176 135.142 423.162 135.121 423.162 135.121C423.108 135.036 423.082 134.993 423.082 134.993C422.287 133.579 422.312 131.79 421.522 130.39C421.468 130.299 421.44 130.254 421.44 130.254C421.382 130.167 421.367 130.146 421.367 130.146C421.306 130.062 421.29 130.042 421.29 130.042C421.225 129.962 421.209 129.943 421.209 129.943C421.141 129.867 421.123 129.849 421.123 129.849C421.033 129.76 421.014 129.742 421.014 129.742C420.938 129.675 420.918 129.659 420.918 129.659C420.838 129.597 420.817 129.582 420.817 129.582C420.732 129.524 420.711 129.511 420.711 129.511C420.622 129.458 420.599 129.446 420.599 129.446C420.529 129.41 420.505 129.398 420.505 129.398C420.416 129.358 420.385 129.345 420.385 129.345C420.323 129.321 420.291 129.309 420.291 129.309C420.227 129.287 420.194 129.277 420.194 129.277C420.128 129.257 420.095 129.248 420.095 129.248C418.991 128.986 417.973 129.169 416.909 129.333C415.867 129.514 414.456 129.841 413.414 130.028C412.746 130.146 411.94 130.261 411.292 130.216C411.127 130.204 411.003 130.185 410.904 130.166C410.815 130.146 410.786 130.139 410.786 130.139C410.701 130.115 410.673 130.107 410.673 130.107C410.592 130.079 410.566 130.069 410.566 130.069C410.49 130.037 410.465 130.025 410.465 130.025C410.394 129.988 410.371 129.975 410.371 129.975C410.283 129.919 410.262 129.904 410.262 129.904C410.183 129.84 410.164 129.823 410.164 129.823C410.082 129.738 410.068 129.721 410.068 129.721C410.001 129.63 409.988 129.611 409.988 129.611C409.941 129.532 409.931 129.511 409.931 129.511C409.891 129.426 409.881 129.404 409.881 129.404C409.847 129.313 409.839 129.29 409.839 129.29C409.817 129.218 409.81 129.193 409.81 129.193C409.791 129.118 409.786 129.092 409.786 129.092C409.771 129.014 409.766 128.987 409.766 128.987C409.754 128.906 409.75 128.878 409.75 128.878C409.622 127.527 410.097 125.953 410.324 124.637C410.451 123.947 410.585 123.133 410.531 122.454C410.523 122.369 410.52 122.341 410.52 122.341C410.509 122.259 410.505 122.232 410.505 122.232C410.491 122.152 410.486 122.126 410.486 122.126C410.469 122.049 410.463 122.024 410.463 122.024C410.443 121.951 410.435 121.927 410.435 121.927C410.411 121.857 410.403 121.834 410.403 121.834C410.366 121.745 410.356 121.724 410.356 121.724C410.315 121.645 410.306 121.629 410.306 121.629C410.256 121.55 410.246 121.535 410.246 121.535C410.178 121.448 410.166 121.434 410.166 121.434C410.09 121.354 410.077 121.341 410.077 121.341C409.994 121.268 409.98 121.257 409.98 121.257C409.89 121.191 409.874 121.18 409.874 121.18C409.794 121.13 409.777 121.12 409.777 121.12C409.692 121.074 409.675 121.065 409.675 121.065C409.604 121.031 409.568 121.015 409.568 121.015C409.494 120.984 409.456 120.969 409.456 120.969C409.379 120.94 409.34 120.927 409.34 120.927C408.991 120.809 408.622 120.746 408.338 120.699C407.689 120.599 406.736 120.491 406.145 120.267C406.061 120.235 406.02 120.219 406.02 120.219C405.939 120.184 405.898 120.166 405.898 120.166C405.819 120.128 405.78 120.108 405.78 120.108C405.704 120.067 405.685 120.056 405.685 120.056C405.593 120 405.575 119.989 405.575 119.989C405.487 119.929 405.47 119.916 405.47 119.916C405.387 119.85 405.37 119.837 405.37 119.837C405.291 119.766 405.276 119.751 405.276 119.751C405.188 119.659 405.167 119.635 405.167 119.635C405.106 119.561 405.086 119.535 405.086 119.535C405.029 119.456 405.011 119.428 405.011 119.428C404.959 119.344 404.942 119.315 404.942 119.315C404.894 119.226 404.878 119.196 404.878 119.196C404.848 119.134 404.834 119.103 404.834 119.103C404.806 119.039 404.793 119.007 404.793 119.007C404.767 118.941 404.755 118.907 404.755 118.907C404.5 118.17 404.498 117.452 404.536 116.752C404.587 115.995 404.726 115.231 404.906 114.495C405.504 112.16 406.484 109.837 407.873 107.86" stroke="#E9896A" stroke-width="2.75" stroke-miterlimit="10" stroke-linecap="round" stroke-linejoin="round"/>
<path d="M65.1149 346.535C63.6329 348.235 61.6979 350.044 60.3599 351.858C58.8739 353.82 57.7529 356.062 56.7769 358.313C55.2339 361.805 53.4159 366.833 51.5729 370.153C51.1209 370.951 50.5429 371.872 49.8929 372.484C49.8209 372.55 49.7849 372.581 49.7849 372.581C49.7129 372.642 49.6769 372.671 49.6769 372.671C49.6049 372.727 49.5689 372.753 49.5689 372.753C49.4969 372.803 49.4619 372.827 49.4619 372.827C49.3909 372.872 49.3549 372.893 49.3549 372.893C49.2839 372.932 49.2479 372.951 49.2479 372.951C49.1769 372.985 49.1409 373 49.1409 373C49.0699 373.028 49.0349 373.041 49.0349 373.041C48.9639 373.063 48.9289 373.073 48.9289 373.073C48.8579 373.089 48.8229 373.096 48.8229 373.096C48.7529 373.106 48.7169 373.11 48.7169 373.11C48.6469 373.114 48.6119 373.115 48.6119 373.115C48.5239 373.112 48.5069 373.11 48.5069 373.11C48.4189 373.099 48.4009 373.096 48.4009 373.096C48.3129 373.077 48.2959 373.073 48.2959 373.073C48.2079 373.047 48.1909 373.041 48.1909 373.041C48.1039 373.008 48.0859 373.001 48.0859 373.001C47.9989 372.962 47.9819 372.953 47.9819 372.953C47.9129 372.917 47.8779 372.898 47.8779 372.898C47.8089 372.858 47.7739 372.836 47.7739 372.836C47.7049 372.791 47.6709 372.768 47.6709 372.768C46.8239 372.164 46.242 371.303 45.514 370.629C45.426 370.55 45.3959 370.525 45.3959 370.525C45.3089 370.453 45.2799 370.43 45.2799 370.43C45.1939 370.366 45.1649 370.346 45.1649 370.346C45.0799 370.291 45.0659 370.282 45.0659 370.282C44.9819 370.235 44.9679 370.228 44.9679 370.228C44.8849 370.19 44.8719 370.184 44.8719 370.184C44.7899 370.156 44.7769 370.152 44.7769 370.152C44.6969 370.134 44.6829 370.132 44.6829 370.132C44.6039 370.125 44.5909 370.125 44.5909 370.125C44.5129 370.129 44.4939 370.132 44.4939 370.132C44.4169 370.149 44.3979 370.155 44.3979 370.155C44.3219 370.185 44.3039 370.194 44.3039 370.194C44.2299 370.236 44.2109 370.248 44.2109 370.248C44.1189 370.317 44.1009 370.332 44.1009 370.332C44.0109 370.417 43.9929 370.436 43.9929 370.436C43.9219 370.516 43.9039 370.537 43.9039 370.537C43.8339 370.627 43.8159 370.651 43.8159 370.651C43.2819 371.44 43.0279 372.247 42.7079 373.109C42.3159 374.237 41.5659 376.544 41.1069 377.613C40.7319 378.513 40.2319 379.539 39.6169 380.243C39.5359 380.333 39.5089 380.362 39.5089 380.362C39.4269 380.447 39.3999 380.474 39.3999 380.474C39.3169 380.554 39.2889 380.58 39.2889 380.58C39.2039 380.655 39.1759 380.68 39.1759 380.68C39.0899 380.751 39.0609 380.774 39.0609 380.774C38.9739 380.841 38.9439 380.862 38.9439 380.862C38.8549 380.924 38.8249 380.945 38.8249 380.945C38.7349 381.003 38.7039 381.022 38.7039 381.022C37.6989 381.626 36.6339 381.694 35.5349 381.738L33.4539 381.776C32.3249 381.809 31.1779 381.921 30.0799 382.193C29.2239 382.401 28.3879 382.713 27.5889 383.082C23.1009 385.189 18.9969 388.858 14.7649 391.406C13.8259 391.941 12.7659 392.531 11.6889 392.638C11.5979 392.644 11.5529 392.645 11.5529 392.645C11.4649 392.646 11.4209 392.645 11.4209 392.645C11.3359 392.64 11.2929 392.637 11.2929 392.637C11.2099 392.627 11.1699 392.621 11.1699 392.621C11.0899 392.606 11.0509 392.597 11.0509 392.597C10.9739 392.576 10.9369 392.565 10.9369 392.565C10.8629 392.539 10.8269 392.524 10.8269 392.524C10.7579 392.493 10.7259 392.477 10.7259 392.477C10.6619 392.442 10.6309 392.423 10.6309 392.423C10.5399 392.362 10.5109 392.34 10.5109 392.34C10.4249 392.269 10.3979 392.244 10.3979 392.244C10.3179 392.164 10.292 392.135 10.292 392.135C10.217 392.045 10.1919 392.014 10.1919 392.014C10.1449 391.949 10.1209 391.915 10.1209 391.915C10.0759 391.846 10.0539 391.81 10.0539 391.81C10.0109 391.736 9.99094 391.698 9.99094 391.698C9.95094 391.62 9.93094 391.58 9.93094 391.58C9.89294 391.498 9.87394 391.456 9.87394 391.456C9.83794 391.37 9.82094 391.326 9.82094 391.326C9.50194 390.468 9.42695 389.622 9.37295 388.727C9.29695 387.146 9.39994 385.5 9.51994 383.922C9.72894 381.129 10.3069 376.45 10.3579 373.669C10.3999 371.626 10.2399 369.552 9.69195 367.578C8.99195 364.9 7.07595 361.409 5.90995 358.883C3.95995 354.693 2.29595 350.171 2.44095 345.484C2.55195 342.152 3.51695 338.895 4.59095 335.761C6.12795 331.302 8.20994 326.5 9.04394 321.852C10.0779 316.362 9.54994 310.34 11.7019 305.093C12.3599 303.479 13.3089 301.99 14.3959 300.632C16.7809 297.588 21.4879 293.522 24.3049 290.824C27.4389 287.817 30.4589 284.57 32.5769 280.751C33.9629 278.254 34.9509 275.521 35.6759 272.762C38.2009 262.879 38.0109 251.863 39.5779 241.814C40.6139 234.888 42.7249 228.092 45.5609 221.695C50.6099 210.301 57.9189 199.846 65.2869 189.841C68.2679 185.878 85.944 162.371 88.587 159.036C90.662 156.447 92.959 153.693 95.225 151.275C99.37 146.799 104.015 142.648 108.849 138.927C119.738 130.581 131.731 123.579 144.058 117.587C156.553 111.561 169.691 106.55 183.243 103.499C193.115 101.262 203.32 100.059 213.434 99.752C231.239 99.158 253.935 101.63 271.811 102.921C277.319 103.295 283.49 103.609 289.018 103.522C295.224 103.432 302.403 102.74 308.586 102.338C311.538 102.175 314.956 102.068 317.937 102.196C323.299 102.396 331.086 103.351 336.188 103.797C340.706 104.133 345.359 104.416 349.829 103.529C352.553 102.997 355.51 101.778 358.101 100.761C360.575 99.794 363.167 98.968 365.837 98.843C371.843 98.55 378.293 100.418 384.296 99.755C390.736 99.088 395.563 94.374 399.554 89.663C400.641 88.216 401.371 86.485 401.398 84.741C401.395 83.615 400.996 82.667 400.488 81.736C400.152 81.103 398.792 78.951 398.402 78.307C396.897 75.828 395.6 73.181 394.728 70.411C393.889 67.792 393.425 65.044 393.254 62.301C392.966 57.693 393.299 52.982 393.796 48.398C394.938 38.257 397.359 26.72 399.237 16.669C399.643 14.727 400.091 12.703 400.732 10.827C401.197 9.46904 401.777 8.12703 402.585 6.93603C403.896 4.97103 405.826 3.64703 408.009 3.00603C410.241 2.34503 412.668 2.40703 414.884 3.10103C416.368 3.56203 417.756 4.31203 419.031 5.19203C420.867 6.46403 422.514 8.02403 424.033 9.65603C426.192 11.984 428.199 14.615 430.064 17.186C433.606 22.147 437.29 27.619 440.423 32.843C441.753 35.073 443.163 37.555 444.321 39.879C444.962 41.127 445.851 43.205 446.419 44.464C446.882 45.46 447.487 46.595 448.286 47.328C448.372 47.406 448.415 47.444 448.415 47.444C448.503 47.519 448.548 47.555 448.548 47.555C449.938 48.662 451.689 48.673 453.35 48.615C455.597 48.523 459.493 47.779 461.751 47.435C462.586 47.314 463.478 47.201 464.32 47.157C465.106 47.107 466.324 47.162 467.122 47.185C467.464 47.193 467.905 47.182 468.192 47.14C468.361 47.117 468.492 47.087 468.592 47.061C468.656 47.043 468.687 47.034 468.687 47.034C468.749 47.014 468.78 47.003 468.78 47.003C468.871 46.969 468.901 46.956 468.901 46.956C468.99 46.917 469.019 46.903 469.019 46.903C469.105 46.858 469.133 46.843 469.133 46.843C469.217 46.793 469.244 46.775 469.244 46.775C469.325 46.719 469.352 46.699 469.352 46.699C469.431 46.637 469.457 46.615 469.457 46.615C469.545 46.535 469.563 46.518 469.563 46.518C469.635 46.445 469.653 46.426 469.653 46.426C469.723 46.347 469.741 46.327 469.741 46.327C469.793 46.264 469.827 46.221 469.827 46.221C470.39 45.459 470.659 44.652 470.966 43.789C471.449 42.396 472.072 40.036 472.574 38.671C473.467 36.017 474.857 33.544 476.553 31.322C477.658 29.858 478.918 28.426 480.181 27.095C483.497 23.627 488.335 19.23 491.834 15.905C494.676 13.315 497.648 10.692 500.933 8.67803C502.867 7.50603 504.979 6.51303 507.241 6.21803C508.483 6.04603 509.887 6.11403 511.063 6.46103C512.44 6.85003 513.658 7.63603 514.541 8.66603C515.326 9.59203 515.778 10.519 516.178 11.61C516.626 12.872 516.887 14.208 517.053 15.535C517.624 20.571 517.129 25.745 516.602 30.767C515.618 39.045 513.955 47.382 511.136 55.241C509.318 60.27 506.641 66.416 506.085 71.735C505.65 75.188 505.881 80.389 505.897 83.906C505.892 86.349 505.813 88.857 505.321 91.255C504.917 93.238 504.209 95.18 503.425 97.043C502.426 99.413 501.039 102.212 500.46 104.706C500.011 106.599 499.898 108.572 500.08 110.508" stroke="#E9896A" stroke-width="2.75" stroke-miterlimit="10" stroke-linecap="round" stroke-linejoin="round"/>
<path d="M499.184 109.911C497.156 108.768 494.669 108.357 492.391 108.83C489.78 109.357 487.792 111.218 486.543 113.439C485.599 115.13 485.005 117.227 485.44 119.096C486.014 121.424 488.048 122.87 490.122 123.729C493.314 125.023 498.014 125.414 500.7 122.914C500.789 122.827 500.833 122.783 500.833 122.783C501.656 121.927 502.104 120.971 502.425 119.879C502.731 118.798 502.846 117.662 502.806 116.541C502.763 115.426 502.573 114.303 502.152 113.266C501.573 111.799 500.467 110.63 499.184 109.911Z" stroke="#E9896A" stroke-width="2.75" stroke-miterlimit="10" stroke-linecap="round" stroke-linejoin="round"/>
<path d="M409.058 231.169C402.73 243.65 397.263 256.923 395.549 270.906C395.385 272.316 395.257 273.81 395.187 275.227C395 280.857 394.606 291.074 394.311 296.717C393.546 312.521 391.847 329.67 391.972 345.466C392.029 352.529 392.397 359.77 393.461 366.757C393.729 368.408 394.051 370.121 394.526 371.726C394.841 372.772 395.253 373.932 395.897 374.782C395.956 374.856 395.976 374.881 395.976 374.881C396.036 374.951 396.056 374.973 396.056 374.973C396.137 375.059 396.157 375.08 396.157 375.08C396.238 375.158 396.259 375.177 396.259 375.177C396.342 375.248 396.384 375.283 396.384 375.283C397.027 375.79 397.663 376.072 398.386 376.351C399.307 376.695 400.292 376.943 401.255 377.144C403.431 377.589 405.737 377.825 407.953 377.992C410.808 378.163 413.726 378.376 416.509 379.068C418.395 379.549 420.468 380.266 421.818 381.696C423.187 383.231 423.713 385.214 423.809 387.212C423.888 389.003 423.635 390.808 423.241 392.553C422.884 394.062 422.381 395.679 421.405 396.896C421.33 396.986 421.292 397.029 421.292 397.029C421.215 397.114 421.176 397.155 421.176 397.155C421.098 397.235 421.058 397.274 421.058 397.274C420.978 397.35 420.938 397.386 420.938 397.386C420.857 397.457 420.816 397.491 420.816 397.491C420.733 397.557 420.691 397.589 420.691 397.589C420.607 397.65 420.564 397.68 420.564 397.68C420.478 397.737 420.435 397.764 420.435 397.764C420.348 397.816 420.304 397.841 420.304 397.841C420.215 397.888 420.17 397.911 420.17 397.911C420.08 397.954 420.034 397.974 420.034 397.974C419.616 398.153 419.214 398.219 418.814 398.22C413.892 398.22 397.944 398.22 392.778 398.22" stroke="#E9896A" stroke-width="2.75" stroke-miterlimit="10" stroke-linecap="round" stroke-linejoin="round"/>
<path d="M323.71 181.507C323.331 190.833 323.368 200.352 324.985 209.563C325.492 212.366 326.165 215.176 327.104 217.863C329.665 224.466 330.848 231.582 330.825 238.655C330.841 242.193 330.494 245.862 330.076 249.377C329.665 253.366 329.4 257.685 329.306 261.693C329.192 266.612 329.307 271.818 329.61 276.728C330.475 289.605 332.674 308.304 334.165 321.28C335.304 330.867 336.373 341.049 336.549 350.693C336.619 353.428 336.439 356.363 336.516 359.093C336.624 362.142 336.941 365.258 338.026 368.129C338.403 369.131 338.978 370.225 339.602 371.03C339.911 371.448 340.159 371.674 340.459 372.009C340.755 372.338 341.05 372.707 341.312 373.064C342.246 374.344 342.989 375.768 343.619 377.219C344.613 379.527 345.351 381.982 345.952 384.42C346.339 385.941 346.612 387.568 347.028 389.082C347.587 391.095 348.355 393.098 349.593 394.796C350.617 396.195 351.919 397.256 353.497 397.795C354.033 397.979 354.596 398.102 355.158 398.164C355.449 398.195 355.755 398.216 356.047 398.218C356.153 398.255 376.592 398.193 376.707 398.219H392.781C392.869 398.218 392.913 398.217 392.913 398.217C393 398.213 393.043 398.211 393.043 398.211C393.128 398.205 393.171 398.201 393.171 398.201C393.255 398.192 393.297 398.187 393.297 398.187C393.38 398.175 393.421 398.169 393.421 398.169C393.502 398.155 393.542 398.147 393.542 398.147C393.622 398.13 393.661 398.121 393.661 398.121C393.739 398.101 393.778 398.091 393.778 398.091C393.855 398.069 393.893 398.057 393.893 398.057C393.969 398.032 394.006 398.019 394.006 398.019C394.08 397.992 394.117 397.977 394.117 397.977C394.19 397.947 394.226 397.931 394.226 397.931C394.297 397.898 394.333 397.881 394.333 397.881C394.403 397.846 394.437 397.827 394.437 397.827C394.505 397.789 394.539 397.769 394.539 397.769C394.606 397.728 394.639 397.707 394.639 397.707C394.705 397.664 394.737 397.641 394.737 397.641C394.801 397.595 394.833 397.571 394.833 397.571C394.896 397.522 394.927 397.497 394.927 397.497C395.019 397.419 395.049 397.392 395.049 397.392C395.138 397.309 395.167 397.28 395.167 397.28C395.937 396.489 396.262 395.586 396.528 394.584C396.795 393.514 396.918 392.396 396.955 391.295C397.011 389.52 396.848 387.727 396.581 385.974C396.323 384.259 395.931 382.519 395.107 380.98C394.519 379.852 393.57 378.789 392.483 378.231C391.689 377.819 390.863 377.583 389.996 377.402C388.73 377.147 387.413 377.054 386.122 377.034C384.054 376.989 381.922 377.223 379.861 377.367C378.322 377.457 376.747 377.487 375.21 377.343C374.02 377.222 372.705 377.001 371.67 376.401C371.589 376.351 371.549 376.325 371.549 376.325C371.468 376.27 371.428 376.242 371.428 376.242C371.348 376.183 371.308 376.152 371.308 376.152C371.228 376.088 371.188 376.055 371.188 376.055C370.396 375.358 369.908 374.584 369.421 373.694C368.847 372.625 368.387 371.454 367.986 370.309C366.779 366.859 366.046 363.227 365.777 359.583C365.494 356.073 365.555 352.437 365.781 348.921C366.477 340.615 366.743 330.449 366.932 322.05C367.178 306.415 367.223 289.224 368.447 273.675C368.808 269.409 369.215 264.691 370.009 260.497C370.332 258.785 370.722 257.015 371.254 255.355C371.59 254.297 372.025 253.184 372.572 252.227C373.131 251.201 373.882 250.535 374.719 249.801C375.766 248.901 376.915 248.072 378.067 247.311C379.619 246.285 381.354 245.286 382.99 244.399C384.014 243.804 404.518 233.595 405.986 232.853C407.42 232.131 408.851 231.318 410.207 230.46C415.125 227.353 419.5 223.357 423.223 218.898C425.519 216.194 427.752 212.848 429.773 209.928C434.071 203.809 439.112 197.116 443.733 191.233C445.774 188.65 451.725 181.361 453.663 178.661C455.872 175.634 458.018 172.347 459.925 169.121C465.266 160.078 469.519 150.323 472.969 140.412" stroke="#E9896A" stroke-width="2.75" stroke-miterlimit="10" stroke-linecap="round" stroke-linejoin="round"/>
<path d="M171.066 254.235C172.39 260.345 173.561 266.738 174.164 272.955C174.561 277.163 174.746 281.466 174.342 285.679C174.062 288.537 173.42 291.402 172.642 294.164C170.994 299.919 168.479 305.435 165.487 310.612C164.417 312.431 163.261 314.321 162.348 316.226C160.833 319.346 159.627 322.688 159.316 326.162C159.176 327.776 159.244 329.422 159.592 331.007C159.698 331.492 159.832 331.982 159.99 332.453C160.476 333.874 161.114 335.524 161.689 336.913C162.891 339.803 164.312 342.802 165.73 345.593C170.67 355.174 178.529 368.353 183.981 377.717C186.112 381.27 188.504 385.174 190.919 388.533C192.154 390.236 193.482 391.996 194.948 393.51C195.551 394.13 196.198 394.732 196.911 395.224C197.86 395.884 198.917 396.399 200.001 396.796C202.072 397.551 204.283 397.913 206.474 398.093C207.37 398.162 208.378 398.208 209.277 398.218C217.188 398.222 233.806 398.222 241.62 398.222C241.677 398.222 241.734 398.221 241.734 398.221C241.791 398.22 241.847 398.218 241.847 398.218C241.903 398.216 241.959 398.213 241.959 398.213C242.014 398.209 242.069 398.205 242.069 398.205C242.124 398.2 242.178 398.195 242.178 398.195C242.232 398.189 242.286 398.183 242.286 398.183C242.339 398.176 242.392 398.169 242.392 398.169C242.445 398.161 242.497 398.153 242.497 398.153C242.549 398.144 242.601 398.135 242.601 398.135C242.652 398.125 242.704 398.115 242.704 398.115C242.755 398.104 242.805 398.092 242.805 398.092C242.855 398.08 242.905 398.067 242.905 398.067C242.955 398.054 243.004 398.04 243.004 398.04C243.053 398.026 243.102 398.011 243.102 398.011C243.15 397.996 243.198 397.98 243.198 397.98C243.246 397.964 243.293 397.947 243.293 397.947C243.34 397.93 243.387 397.912 243.387 397.912C243.433 397.893 243.48 397.874 243.48 397.874C243.571 397.834 243.616 397.814 243.616 397.814C243.705 397.771 243.75 397.749 243.75 397.749C243.837 397.703 243.881 397.679 243.881 397.679C243.967 397.63 244.009 397.604 244.009 397.604C244.093 397.551 244.134 397.524 244.134 397.524C244.216 397.468 244.256 397.439 244.256 397.439C244.336 397.38 244.375 397.35 244.375 397.35C244.453 397.288 244.492 397.256 244.492 397.256C244.568 397.191 244.606 397.157 244.606 397.157C244.68 397.088 244.717 397.053 244.717 397.053C244.789 396.981 244.825 396.944 244.825 396.944C245.918 395.77 246.332 394.257 246.584 392.739C246.756 391.598 246.748 390.42 246.507 389.29C246.274 388.179 245.815 387.117 245.193 386.169C243.448 383.529 240.889 381.51 238.104 380.053C235.268 378.606 231.994 378.317 228.854 378.408C227.326 378.45 225.709 378.658 224.184 378.783C222.162 378.933 220.09 379.019 218.071 378.791C217.019 378.668 215.896 378.441 214.965 377.938C214.111 377.479 213.36 376.843 212.68 376.158C211.617 375.079 210.696 373.843 209.857 372.584C208.607 370.729 207.543 368.66 206.565 366.649C203.777 360.848 201.134 354.296 198.741 348.311C197.047 343.995 195.43 339.472 194.332 334.966C193.677 332.222 193.152 329.384 193.148 326.555C193.153 325.503 193.231 324.428 193.454 323.397C193.893 321.362 194.591 319.356 195.409 317.443C196.569 314.746 198.013 312.132 199.569 309.644C201.065 307.202 204.042 303.07 205.655 300.67C208.501 296.492 216.641 284.119 219.495 279.736C228.335 265.972 235.425 250.753 241.899 235.748" stroke="#E9896A" stroke-width="2.75" stroke-miterlimit="10" stroke-linecap="round" stroke-linejoin="round"/>
<path d="M191.629 228.937C206.143 229.694 220.948 230.852 235.163 233.988C238.239 234.663 241.393 235.584 244.408 236.484C246.852 237.179 249.461 237.833 251.946 238.364C257.148 239.476 262.498 240.221 267.81 240.517C270.183 240.649 272.702 240.695 275.078 240.647C277.283 240.564 279.575 240.59 281.777 240.743C288.305 241.189 294.937 242.389 301.338 243.739C310.87 245.79 320.848 248.515 330.197 251.289" stroke="#E9896A" stroke-width="2.75" stroke-miterlimit="10" stroke-linecap="round" stroke-linejoin="round"/>
<path d="M104.062 161.805C100.064 172.502 97.593 183.999 98.395 195.459C98.562 197.862 98.879 200.299 99.339 202.664C99.977 205.764 100.641 209.372 101.115 212.503C102.306 220.367 102.955 228.503 102.825 236.458C102.738 241.858 102.271 247.334 101.081 252.608C100.279 256.148 99.142 259.661 97.551 262.927C95.449 267.165 92.626 271.098 89.74 274.836C86.353 279.16 82.518 283.44 78.716 287.402C75.719 290.467 72.613 293.697 69.961 297.064C68.041 299.501 66.21 302.091 64.826 304.874C63.977 306.601 63.273 308.441 63.025 310.359C62.544 315.323 62.878 320.596 63.142 325.575C63.727 334.153 64.571 343.232 65.827 351.732C67.282 361.589 69.308 371.564 71.895 381.187C72.952 384.982 74.129 388.848 75.799 392.424C76.34 393.556 76.947 394.698 77.683 395.717C78.292 396.57 79.092 397.432 79.968 397.878C80.047 397.917 80.086 397.936 80.086 397.936C80.165 397.971 80.204 397.988 80.204 397.988C80.283 398.02 80.322 398.035 80.322 398.035C80.401 398.063 80.441 398.077 80.441 398.077C80.52 398.102 80.56 398.113 80.56 398.113C80.639 398.134 80.679 398.144 80.679 398.144C80.758 398.162 80.798 398.17 80.798 398.17C80.877 398.184 80.917 398.19 80.917 398.19C80.996 398.201 81.036 398.205 81.036 398.205C81.115 398.212 81.155 398.215 81.155 398.215C88.783 398.222 103.324 398.228 110.931 398.213C111.423 398.198 111.928 398.159 112.415 398.089C113.666 397.92 115.064 397.44 115.955 396.576C116.03 396.504 116.066 396.467 116.066 396.467C116.138 396.392 116.173 396.355 116.173 396.355C116.242 396.278 116.276 396.239 116.276 396.239C116.342 396.16 116.375 396.12 116.375 396.12C116.438 396.038 116.469 395.997 116.469 395.997C116.529 395.913 116.559 395.871 116.559 395.871C116.617 395.785 116.645 395.741 116.645 395.741C116.7 395.652 116.726 395.608 116.726 395.608C117.109 394.926 117.316 394.253 117.509 393.516C117.911 391.897 117.901 390.192 117.593 388.558C117.414 387.57 117.106 386.598 116.619 385.718C115.97 384.527 115.015 383.559 113.958 382.851C112.879 382.123 111.651 381.634 110.41 381.261C108.388 380.662 106.265 380.339 104.171 380.12C101.915 379.916 99.672 379.804 97.475 379.175C96.018 378.772 94.549 378.152 93.374 377.193C92.153 376.211 91.452 374.907 90.89 373.499C90.236 371.826 89.831 370.038 89.52 368.271C88.688 363.242 88.509 357.793 88.288 352.7C88.132 347.85 88.031 341.329 88.121 336.464C88.309 331.02 88.934 325.47 90.918 320.362C92.706 315.741 95.995 311.838 99.727 308.642C101.237 307.355 102.892 306.133 104.55 305.044C106.208 303.938 108.502 302.657 110.229 301.631C118.802 296.474 127.429 290.526 135.5 284.613C144.707 277.772 154.012 269.937 162.543 262.269C169.144 256.317 175.663 249.922 181.388 243.116C185.004 238.879 188.268 234.088 191.314 229.429C194.473 224.528 197.8 219.247 200.295 213.967C201.571 211.092 202.498 208.01 203.344 204.986C205.258 198.049 206.709 190.337 207.997 183.254" stroke="#E9896A" stroke-width="2.75" stroke-miterlimit="10" stroke-linecap="round" stroke-linejoin="round"/>
<path d="M500.079 110.51C499.897 108.574 500.01 106.601 500.459 104.708C501.035 102.221 502.429 99.405 503.424 97.045C504.208 95.182 504.916 93.241 505.32 91.257C505.811 88.86 505.891 86.35 505.896 83.908C505.881 80.363 505.65 75.209 506.084 71.737C506.64 66.417 509.32 60.266 511.135 55.243C513.954 47.384 515.617 39.048 516.601 30.769C516.927 27.841 517.204 24.673 517.283 21.732C517.335 19.589 517.3 17.395 517.017 15.268C516.714 13.04 516.115 10.642 514.701 8.863C512.946 6.641 510.085 5.867 507.408 6.198C505.084 6.465 502.913 7.477 500.931 8.679C497.647 10.693 494.672 13.316 491.832 15.906C488.331 19.237 483.503 23.62 480.179 27.095C478.918 28.425 477.656 29.858 476.551 31.322C474.945 33.434 473.597 35.766 472.714 38.274C472.132 39.83 471.491 42.212 470.965 43.789C470.698 44.559 470.382 45.428 469.926 46.084C469.86 46.176 469.826 46.221 469.826 46.221C469.758 46.307 469.74 46.327 469.74 46.327C469.67 46.407 469.652 46.426 469.652 46.426C469.58 46.5 469.562 46.518 469.562 46.518C469.481 46.593 469.456 46.615 469.456 46.615C469.378 46.679 469.351 46.699 469.351 46.699C469.27 46.757 469.243 46.775 469.243 46.775C469.16 46.827 469.132 46.843 469.132 46.843C469.047 46.889 469.018 46.903 469.018 46.903C468.93 46.944 468.9 46.956 468.9 46.956C468.81 46.992 468.779 47.003 468.779 47.003C468.717 47.024 468.686 47.034 468.686 47.034C468.623 47.053 468.591 47.061 468.591 47.061C468.06 47.196 467.61 47.188 467.121 47.185C466.317 47.162 465.109 47.108 464.319 47.157C463.477 47.201 462.585 47.314 461.75 47.435C459.573 47.767 455.726 48.493 453.573 48.603C451.899 48.696 449.937 48.669 448.592 47.591C448.502 47.519 448.457 47.482 448.457 47.482C448.369 47.406 448.326 47.368 448.326 47.368C448.241 47.289 448.199 47.249 448.199 47.249C447.367 46.417 446.908 45.493 446.417 44.465C445.343 41.975 444.028 39.164 442.71 36.82C439.548 31.099 435.737 25.323 432.013 19.942C429.712 16.67 427.217 13.182 424.545 10.219C422.881 8.377 421.074 6.61 419.029 5.192C417.754 4.311 416.366 3.562 414.882 3.101C412.666 2.407 410.239 2.345 408.007 3.006C406.937 3.314 405.796 3.868 404.937 4.494C403.972 5.18 403.191 6.041 402.584 6.936C401.776 8.127 401.195 9.46901 400.731 10.827C400.091 12.702 399.64 14.729 399.236 16.669C397.356 26.733 394.938 38.249 393.795 48.398C393.298 52.984 392.964 57.692 393.253 62.301C393.424 65.043 393.889 67.792 394.727 70.411C395.598 73.181 396.896 75.828 398.401 78.307C398.745 78.87 400.121 81.065 400.409 81.595C400.904 82.459 401.343 83.493 401.387 84.455C401.44 85.339 401.25 86.201 400.994 86.962C400.647 87.972 400.151 88.882 399.552 89.663C397.12 92.51 394.49 95.306 391.283 97.285C389.168 98.598 386.775 99.491 384.294 99.755C378.293 100.418 371.84 98.55 365.835 98.843C363.166 98.968 360.572 99.793 358.099 100.761C355.511 101.779 352.556 102.995 349.827 103.529C345.358 104.417 340.702 104.134 336.186 103.797C331.464 103.389 322.391 102.326 317.935 102.196C314.908 102.066 311.619 102.17 308.584 102.338C302.41 102.717 295.156 103.459 289.016 103.522C283.474 103.598 277.357 103.299 271.809 102.921C253.809 101.603 231.268 99.176 213.432 99.752C203.317 100.061 193.114 101.261 183.241 103.499C169.689 106.551 156.552 111.56 144.057 117.587C131.73 123.579 119.737 130.581 108.848 138.927C104.014 142.649 99.3691 146.798 95.2241 151.275C92.9611 153.692 90.6561 156.443 88.5861 159.036C86.0281 162.264 68.1661 186.03 65.2861 189.841C57.9201 199.847 50.6091 210.299 45.5601 221.695C42.5311 228.509 40.3571 235.775 39.3781 243.174C38.0261 252.77 38.0891 263.342 35.6751 272.762C34.9301 275.601 33.9041 278.413 32.4521 280.971C30.3421 284.694 27.3761 287.876 24.3041 290.823C21.4741 293.529 16.7731 297.599 14.3951 300.631C13.3731 301.91 12.4681 303.303 11.8211 304.81C10.9101 306.897 10.4471 309.165 10.1681 311.417C9.76412 314.71 9.64812 318.589 9.04312 321.851C8.29212 326.151 6.18012 331.251 4.72112 335.382C3.60312 338.604 2.57712 341.948 2.44312 345.377C2.26912 350.1 3.94312 354.661 5.90812 358.882C7.08112 361.434 8.98412 364.888 9.69012 367.577C10.2381 369.551 10.3981 371.625 10.3561 373.668C10.3061 376.441 9.72712 381.135 9.51812 383.921C9.39812 385.499 9.29512 387.145 9.37112 388.726C9.41712 389.582 9.51712 390.532 9.81912 391.325C9.85412 391.413 9.87212 391.455 9.87212 391.455C9.90912 391.538 9.92912 391.579 9.92912 391.579C9.96912 391.658 9.98912 391.697 9.98912 391.697C10.0311 391.772 10.0521 391.809 10.0521 391.809C10.0961 391.88 10.1191 391.914 10.1191 391.914C10.1661 391.98 10.1901 392.013 10.1901 392.013C10.2641 392.105 10.2901 392.134 10.2901 392.134C10.3691 392.217 10.3961 392.243 10.3961 392.243C10.4801 392.316 10.5091 392.339 10.5091 392.339C10.5981 392.403 10.6291 392.422 10.6291 392.422C10.6921 392.459 10.7241 392.476 10.7241 392.476C10.7891 392.508 10.8251 392.523 10.8251 392.523C10.8981 392.551 10.9351 392.564 10.9351 392.564C11.0111 392.586 11.0491 392.596 11.0491 392.596C11.1281 392.613 11.1681 392.62 11.1681 392.62C11.2501 392.632 11.2911 392.636 11.2911 392.636C11.3761 392.642 11.4191 392.644 11.4191 392.644C11.5061 392.645 11.5511 392.644 11.5511 392.644C12.1471 392.62 12.6341 392.442 13.1441 392.235C13.6961 392.003 14.2461 391.706 14.7631 391.404C18.9981 388.854 23.0971 385.188 27.5871 383.08C28.3861 382.711 29.2221 382.398 30.0781 382.191C31.1761 381.919 32.3231 381.807 33.4521 381.774L35.5331 381.736C36.5801 381.709 37.7661 381.586 38.6411 381.057C38.7321 381.002 38.7631 380.982 38.7631 380.982C38.8531 380.923 38.8831 380.902 38.8831 380.902C38.9721 380.839 39.0011 380.817 39.0011 380.817C39.0881 380.749 39.1171 380.726 39.1171 380.726C39.2031 380.654 39.2311 380.629 39.2311 380.629C39.3151 380.552 39.3431 380.526 39.3431 380.526C39.4261 380.445 39.4531 380.417 39.4531 380.417C39.5341 380.331 39.5611 380.302 39.5611 380.302C40.4771 379.234 40.9281 378.06 41.4261 376.8C41.7461 375.976 42.5301 373.583 42.8391 372.736C43.0721 372.104 43.3601 371.354 43.7101 370.803C43.7621 370.724 43.7791 370.699 43.7791 370.699C43.8311 370.626 43.8491 370.603 43.8491 370.603C43.9191 370.515 43.9371 370.494 43.9371 370.494C44.0081 370.416 44.0261 370.398 44.0261 370.398C44.1161 370.315 44.1351 370.3 44.1351 370.3C44.2271 370.234 44.2451 370.223 44.2451 370.223C44.3201 370.183 44.3381 370.175 44.3381 370.175C44.4141 370.148 44.4331 370.142 44.4331 370.142C44.5231 370.126 44.5361 370.125 44.5361 370.125C44.6281 370.125 44.6411 370.126 44.6411 370.126C44.7211 370.138 44.7341 370.141 44.7341 370.141C44.8151 370.164 44.8291 370.168 44.8291 370.168C44.9111 370.201 44.9251 370.207 44.9251 370.207C45.0081 370.249 45.0221 370.257 45.0221 370.257C45.1061 370.308 45.1351 370.326 45.1351 370.326C45.2201 370.386 45.2491 370.407 45.2491 370.407C45.3361 370.475 45.3651 370.499 45.3651 370.499C46.1411 371.17 46.7981 372.135 47.6001 372.719C47.6691 372.767 47.7031 372.791 47.7031 372.791C47.7721 372.836 47.8061 372.857 47.8061 372.857C47.8751 372.897 47.9101 372.916 47.9101 372.916C47.9971 372.96 48.0141 372.968 48.0141 372.968C48.1011 373.006 48.1181 373.013 48.1181 373.013C48.2051 373.045 48.2231 373.05 48.2231 373.05C48.3111 373.075 48.3281 373.079 48.3281 373.079C48.4161 373.097 48.4331 373.099 48.4331 373.099C48.5211 373.109 48.5391 373.11 48.5391 373.11C48.6091 373.112 48.6441 373.112 48.6441 373.112C48.7141 373.108 48.7491 373.104 48.7491 373.104C48.8191 373.094 48.8551 373.087 48.8551 373.087C48.9261 373.071 48.9611 373.061 48.9611 373.061C49.0321 373.039 49.0671 373.026 49.0671 373.026C49.1381 372.998 49.1731 372.982 49.1731 372.982C49.2441 372.948 49.2801 372.93 49.2801 372.93C49.3511 372.891 49.3871 372.87 49.3871 372.87C49.4581 372.825 49.4941 372.801 49.4941 372.801C49.5661 372.751 49.6011 372.724 49.6011 372.724C49.6731 372.668 49.7091 372.639 49.7091 372.639C49.7811 372.578 49.8171 372.547 49.8171 372.547C50.5981 371.818 51.0521 371.036 51.5691 370.15C53.4071 366.84 55.2341 361.793 56.7731 358.31C57.7271 356.112 58.8171 353.92 60.2531 351.994C61.6201 350.111 63.5821 348.284 65.1121 346.533C66.5901 358.075 68.8741 369.946 71.8921 381.183C72.9141 384.863 74.0581 388.603 75.6391 392.084C76.2001 393.297 76.8311 394.509 77.6011 395.603C78.2251 396.489 79.0491 397.411 79.9651 397.874C80.0441 397.913 80.0831 397.932 80.0831 397.932C80.1621 397.967 80.2011 397.984 80.2011 397.984C80.2801 398.016 80.3191 398.031 80.3191 398.031C80.3981 398.059 80.4381 398.073 80.4381 398.073C80.5171 398.098 80.5571 398.109 80.5571 398.109C80.6361 398.13 80.6761 398.14 80.6761 398.14C80.7551 398.158 80.7951 398.166 80.7951 398.166C80.8741 398.18 80.9141 398.186 80.9141 398.186C80.9931 398.197 81.0331 398.201 81.0331 398.201C81.1121 398.208 81.1521 398.211 81.1521 398.211C88.7801 398.218 103.321 398.224 110.928 398.209C111.42 398.194 111.925 398.155 112.412 398.085C113.663 397.916 115.061 397.436 115.952 396.572C116.027 396.5 116.063 396.463 116.063 396.463C116.135 396.388 116.17 396.351 116.17 396.351C116.239 396.274 116.273 396.235 116.273 396.235C116.339 396.156 116.372 396.116 116.372 396.116C116.435 396.034 116.466 395.993 116.466 395.993C116.526 395.909 116.556 395.867 116.556 395.867C116.614 395.781 116.642 395.737 116.642 395.737C116.697 395.648 116.723 395.604 116.723 395.604C117.105 394.917 117.313 394.252 117.506 393.512C117.908 391.893 117.898 390.188 117.59 388.554C117.417 387.603 117.127 386.665 116.669 385.812C116.112 384.746 115.236 383.779 114.337 383.118C113.253 382.303 111.99 381.754 110.702 381.348C108.59 380.687 106.363 380.347 104.166 380.116C102.868 379.977 101.451 379.922 100.162 379.725C98.2761 379.446 96.3761 378.989 94.6911 378.073C93.8081 377.598 92.9271 376.903 92.3351 376.142C91.6231 375.235 91.1611 374.229 90.7601 373.164C89.6451 370.066 89.2201 366.729 88.9091 363.464C88.2011 355.343 88.0871 346.432 88.0811 338.263C88.1261 334.21 88.4241 330.093 89.2391 326.117C89.8271 323.288 90.6881 320.476 92.0281 317.907C94.2321 313.761 97.5531 310.283 101.232 307.407C103.969 305.233 107.202 303.384 110.224 301.626C123.448 293.595 136.342 284.417 148.283 274.573C155.97 268.182 163.942 261.248 171.063 254.234C172.387 260.344 173.558 266.737 174.161 272.954C174.558 277.162 174.743 281.465 174.339 285.678C174.059 288.536 173.417 291.401 172.639 294.163C170.991 299.918 168.476 305.434 165.484 310.611C164.414 312.43 163.258 314.32 162.345 316.225C160.83 319.345 159.624 322.687 159.313 326.161C159.173 327.775 159.241 329.421 159.589 331.006C159.695 331.491 159.829 331.981 159.987 332.452C160.473 333.873 161.111 335.523 161.686 336.912C162.888 339.802 164.309 342.801 165.727 345.592C170.667 355.173 178.526 368.352 183.978 377.716C186.109 381.269 188.501 385.173 190.916 388.532C192.151 390.235 193.479 391.995 194.945 393.509C195.548 394.129 196.195 394.731 196.908 395.223C197.857 395.883 198.914 396.398 199.998 396.795C202.069 397.55 204.28 397.912 206.471 398.092C207.367 398.161 208.375 398.207 209.274 398.217C217.185 398.221 233.803 398.221 241.617 398.221C241.674 398.221 241.731 398.22 241.731 398.22C241.788 398.219 241.844 398.217 241.844 398.217C241.9 398.215 241.956 398.212 241.956 398.212C242.011 398.208 242.066 398.204 242.066 398.204C242.121 398.199 242.175 398.194 242.175 398.194C242.229 398.188 242.283 398.182 242.283 398.182C242.336 398.175 242.389 398.168 242.389 398.168C242.442 398.16 242.494 398.152 242.494 398.152C242.546 398.143 242.598 398.134 242.598 398.134C242.649 398.124 242.701 398.114 242.701 398.114C242.752 398.103 242.802 398.091 242.802 398.091C242.852 398.079 242.902 398.066 242.902 398.066C242.952 398.053 243.001 398.039 243.001 398.039C243.05 398.025 243.099 398.01 243.099 398.01C243.147 397.995 243.195 397.979 243.195 397.979C243.243 397.963 243.29 397.946 243.29 397.946C243.337 397.929 243.384 397.911 243.384 397.911C243.43 397.892 243.477 397.873 243.477 397.873C243.568 397.833 243.613 397.813 243.613 397.813C243.702 397.77 243.747 397.748 243.747 397.748C243.834 397.702 243.878 397.678 243.878 397.678C243.964 397.629 244.006 397.603 244.006 397.603C244.09 397.55 244.131 397.523 244.131 397.523C244.213 397.467 244.253 397.438 244.253 397.438C244.333 397.379 244.372 397.349 244.372 397.349C244.45 397.287 244.489 397.255 244.489 397.255C244.565 397.19 244.603 397.156 244.603 397.156C244.677 397.087 244.714 397.052 244.714 397.052C244.786 396.98 244.822 396.943 244.822 396.943C245.915 395.769 246.329 394.256 246.581 392.738C246.753 391.597 246.745 390.419 246.504 389.289C246.271 388.178 245.812 387.116 245.19 386.168C243.445 383.528 240.886 381.509 238.101 380.052C235.265 378.605 231.991 378.316 228.851 378.407C227.323 378.449 225.706 378.657 224.181 378.782C222.159 378.932 220.087 379.018 218.068 378.79C217.016 378.667 215.893 378.44 214.962 377.937C214.108 377.478 213.357 376.842 212.677 376.157C211.614 375.078 210.693 373.842 209.854 372.583C208.604 370.728 207.54 368.659 206.562 366.648C203.774 360.847 201.131 354.295 198.738 348.31C197.044 343.994 195.427 339.471 194.329 334.965C193.674 332.221 193.149 329.383 193.145 326.554C193.15 325.502 193.228 324.427 193.451 323.396C193.89 321.361 194.588 319.355 195.406 317.442C196.566 314.745 198.01 312.131 199.566 309.643C201.062 307.201 204.039 303.069 205.652 300.669C208.498 296.491 216.638 284.118 219.492 279.735C228.332 265.971 235.422 250.752 241.896 235.747C252.28 238.946 263.159 240.778 274.04 240.666C275.783 240.643 277.627 240.56 279.368 240.628C282.34 240.722 285.466 241.037 288.414 241.433C302.394 243.411 316.36 247.243 329.895 251.203C329.113 259.822 329.082 268.621 329.639 277.255C330.512 289.868 332.694 308.557 334.161 321.283C334.983 328.127 335.814 336.006 336.23 342.858C336.452 346.616 336.611 350.71 336.543 354.461C336.437 357.811 336.441 361.228 337.044 364.535C337.403 366.494 338 368.534 339.046 370.23C339.336 370.705 339.651 371.118 339.955 371.469C340.277 371.831 340.537 372.083 340.826 372.444C341.89 373.746 342.717 375.235 343.411 376.762C344.603 379.412 345.435 382.248 346.103 385.071C346.509 386.805 346.818 388.612 347.389 390.301C348.198 392.785 349.538 395.42 351.723 396.907C352.48 397.424 353.148 397.711 353.995 397.95C354.443 398.069 354.911 398.149 355.373 398.188C364.766 398.281 383.461 398.191 392.778 398.221C392.864 398.221 392.949 398.219 392.949 398.219C393.033 398.217 393.117 398.214 393.117 398.214C393.2 398.21 393.283 398.205 393.283 398.205C393.365 398.199 393.447 398.193 393.447 398.193C393.528 398.185 393.608 398.177 393.608 398.177C393.688 398.168 393.767 398.157 393.767 398.157C393.845 398.146 393.923 398.134 393.923 398.134C394 398.121 394.077 398.107 394.077 398.107C399.251 398.143 413.875 398.249 418.814 398.22C419.241 398.221 419.639 398.137 419.988 397.993C420.079 397.954 420.125 397.933 420.125 397.933C420.215 397.889 420.259 397.866 420.259 397.866C420.347 397.817 420.391 397.792 420.391 397.792C420.478 397.738 420.521 397.711 420.521 397.711C420.606 397.653 420.649 397.622 420.649 397.622C420.733 397.559 420.774 397.526 420.774 397.526C420.856 397.458 420.897 397.423 420.897 397.423C420.978 397.351 421.018 397.313 421.018 397.313C421.097 397.236 421.137 397.196 421.137 397.196C421.215 397.114 421.253 397.072 421.253 397.072C421.329 396.985 421.367 396.941 421.367 396.941C422.364 395.709 422.817 394.24 423.196 392.74C423.594 391.043 423.855 389.287 423.819 387.542C423.788 385.48 423.22 383.238 421.816 381.696C421.189 381.025 420.461 380.57 419.703 380.19C418.825 379.757 417.883 379.436 416.939 379.18C414.024 378.397 410.954 378.172 407.951 377.992C405.593 377.815 403.153 377.563 400.842 377.057C399.375 376.718 397.797 376.293 396.562 375.422C396.47 375.354 396.426 375.319 396.426 375.319C396.34 375.249 396.298 375.214 396.298 375.214C396.216 375.14 396.196 375.121 396.196 375.121C396.115 375.04 396.095 375.018 396.095 375.018C396.015 374.929 395.995 374.906 395.995 374.906C395.935 374.834 395.896 374.784 395.896 374.784C395.857 374.732 395.818 374.679 395.818 374.679C395.76 374.59 395.682 374.488 395.663 374.451C395.453 374.131 395.27 373.738 395.143 373.456C394.901 372.902 394.698 372.308 394.525 371.728C394.05 370.122 393.727 368.412 393.46 366.759C392.615 361.242 392.214 355.476 392.047 349.897C391.515 330.316 393.99 307.809 394.713 288.187C394.917 284.046 395.036 274.302 395.623 270.276C397.432 256.522 402.818 243.464 409.055 231.17C414.002 228.227 418.428 224.398 422.216 220.074C424.92 217.054 427.463 213.284 429.769 209.932C434.068 203.812 439.108 197.121 443.729 191.237C446.059 188.282 451.515 181.633 453.659 178.665C455.869 175.637 458.014 172.353 459.921 169.125C465.261 160.083 469.515 150.327 472.965 140.416C477.568 140.286 482.662 140.206 487.219 139.639C489.658 139.329 492.124 138.883 494.447 138.064C495.754 137.599 497.032 137.006 498.169 136.207C499.628 135.178 500.73 133.9 501.558 132.413C502.78 130.205 503.306 127.647 503.255 125.135C503.221 123.37 502.871 121.61 502.411 119.911C502.805 118.527 502.895 117.059 502.732 115.632C502.62 114.642 502.345 113.606 501.926 112.775C501.477 111.857 500.823 111.088 500.079 110.51Z" stroke="#E9896A" stroke-width="3.5" stroke-miterlimit="10" stroke-linecap="round" stroke-linejoin="round"/>
</svg>
