<svg width="174" height="402" viewBox="0 0 174 402" fill="none" xmlns="http://www.w3.org/2000/svg">
<path d="M100.59 267.467C102.502 267.437 104.463 267.366 106.308 266.823C107.617 266.451 108.844 265.817 110.01 265.125C112.496 263.629 115.313 261.622 117.977 260.476C122.222 258.611 126.86 257.745 131.456 257.313" stroke="#E9896A" stroke-width="2" stroke-miterlimit="10" stroke-linecap="round" stroke-linejoin="round"/>
<path d="M43.7783 252.307C46.3473 251.909 48.9903 251.768 51.5793 252.048C53.5043 252.261 55.4273 252.717 57.1793 253.558C59.2043 254.521 60.8853 256.071 62.4163 257.683C64.0133 259.371 65.9113 261.628 67.7593 263.013C70.7103 265.257 74.3963 266.233 77.9583 267.035" stroke="#E9896A" stroke-width="2" stroke-miterlimit="10" stroke-linecap="round" stroke-linejoin="round"/>
<path d="M96.3213 238.599C97.7893 238.312 99.8603 237.758 101.33 237.508C102.372 237.326 103.451 237.213 104.509 237.176C108.646 237.08 113.386 237.726 117.501 237.225C119.462 236.992 121.457 236.523 123.131 235.435C124.791 234.345 125.947 232.852 126.865 231.187C127.857 229.366 128.522 227.368 129.014 225.359C129.463 223.386 129.915 221.357 129.824 219.322C129.733 217.194 128.824 215.197 127.666 213.442C126.267 211.284 124.091 208.772 122.481 206.743C121.765 205.857 120.951 204.806 120.307 203.869C119.878 203.234 119.395 202.467 119.178 201.787C119.157 201.717 119.147 201.682 119.147 201.682C119.129 201.614 119.121 201.58 119.121 201.58C119.107 201.514 119.101 201.482 119.101 201.482C119.091 201.418 119.086 201.387 119.086 201.387C119.077 201.296 119.075 201.266 119.075 201.266C119.074 201.18 119.075 201.152 119.075 201.152C119.082 201.071 119.086 201.044 119.086 201.044C119.101 200.968 119.108 200.943 119.108 200.943C119.132 200.872 119.141 200.849 119.141 200.849C119.185 200.762 119.198 200.742 119.198 200.742C119.257 200.664 119.274 200.646 119.274 200.646C119.354 200.573 119.37 200.561 119.37 200.561C119.455 200.505 119.474 200.494 119.474 200.494C119.552 200.455 119.572 200.446 119.572 200.446C119.657 200.412 119.68 200.404 119.68 200.404C119.749 200.381 119.773 200.374 119.773 200.374C119.847 200.354 119.872 200.348 119.872 200.348C121.072 200.105 122.754 200.341 123.97 200.37C125.003 200.404 126.2 200.429 127.155 200.088C127.247 200.053 127.277 200.04 127.277 200.04C127.365 200.001 127.394 199.988 127.394 199.988C127.479 199.946 127.506 199.931 127.506 199.931C127.587 199.885 127.613 199.87 127.613 199.87C127.689 199.821 127.714 199.804 127.714 199.804C127.786 199.751 127.809 199.733 127.809 199.733C127.898 199.657 127.92 199.637 127.92 199.637C128.002 199.554 128.021 199.532 128.021 199.532C128.094 199.442 128.112 199.418 128.112 199.418C128.166 199.338 128.183 199.31 128.183 199.31C128.231 199.225 128.246 199.196 128.246 199.196C128.288 199.106 128.301 199.075 128.301 199.075C128.326 199.012 128.338 198.98 128.338 198.98C128.36 198.915 128.37 198.882 128.37 198.882C128.389 198.815 128.398 198.78 128.398 198.78C128.415 198.71 128.422 198.675 128.422 198.675C128.436 198.603 128.443 198.567 128.443 198.567C128.542 197.934 128.478 197.386 128.396 196.826C128.303 196.231 128.152 195.61 127.996 195.027C127.779 194.215 127.152 192.191 126.953 191.385C126.802 190.78 126.646 190.056 126.668 189.477C126.671 189.414 126.673 189.383 126.673 189.383C126.682 189.293 126.686 189.263 126.686 189.263C126.7 189.178 126.705 189.15 126.705 189.15C126.723 189.07 126.73 189.044 126.73 189.044C126.753 188.969 126.762 188.945 126.762 188.945C126.801 188.853 126.812 188.831 126.812 188.831C126.86 188.749 126.874 188.729 126.874 188.729C126.939 188.649 126.951 188.636 126.951 188.636C127.039 188.558 127.053 188.547 127.053 188.547C127.14 188.491 127.155 188.483 127.155 188.483C127.235 188.444 127.251 188.437 127.251 188.437C127.337 188.405 127.355 188.399 127.355 188.399C127.428 188.378 127.447 188.373 127.447 188.373C127.524 188.356 127.544 188.352 127.544 188.352C127.625 188.339 127.646 188.336 127.646 188.336C127.709 188.328 127.752 188.324 127.752 188.324C127.84 188.318 127.885 188.316 127.885 188.316C129.183 188.29 130.508 188.78 131.793 188.785C131.883 188.783 131.927 188.781 131.927 188.781C132.013 188.775 132.035 188.773 132.035 188.773C132.118 188.764 132.138 188.761 132.138 188.761C132.218 188.748 132.237 188.744 132.237 188.744C132.313 188.727 132.331 188.723 132.331 188.723C132.42 188.697 132.437 188.691 132.437 188.691C132.52 188.658 132.536 188.651 132.536 188.651C132.627 188.603 132.641 188.594 132.641 188.594C132.722 188.536 132.734 188.525 132.734 188.525C132.812 188.448 132.826 188.432 132.826 188.432C132.891 188.342 132.902 188.323 132.902 188.323C132.945 188.242 132.954 188.221 132.954 188.221C132.989 188.132 132.997 188.109 132.997 188.109C133.018 188.037 133.025 188.012 133.025 188.012C133.042 187.935 133.047 187.909 133.047 187.909C133.06 187.828 133.063 187.8 133.063 187.8C133.072 187.715 133.074 187.686 133.074 187.686C133.109 186.899 132.939 186.245 132.778 185.51C132.533 184.48 132.15 183.102 131.944 182.067C131.724 180.945 131.54 179.625 131.868 178.553C131.892 178.48 131.904 178.443 131.904 178.443C131.93 178.371 131.944 178.336 131.944 178.336C131.973 178.266 131.988 178.231 131.988 178.231C132.017 178.168 132.032 178.137 132.032 178.137C132.079 178.045 132.096 178.015 132.096 178.015C132.147 177.926 132.165 177.896 132.165 177.896C132.221 177.809 132.24 177.781 132.24 177.781C132.3 177.697 132.32 177.67 132.32 177.67C132.383 177.589 132.405 177.562 132.405 177.562C132.472 177.483 132.495 177.458 132.495 177.458C132.566 177.382 132.59 177.357 132.59 177.357C132.664 177.283 132.689 177.259 132.689 177.259C132.766 177.188 132.793 177.164 132.793 177.164C133.63 176.45 134.532 176.112 135.518 175.747L137.296 175.136C137.858 174.934 138.525 174.672 138.996 174.347C139.066 174.297 139.089 174.28 139.089 174.28C139.178 174.212 139.199 174.194 139.199 174.194C139.281 174.123 139.301 174.105 139.301 174.105C139.377 174.031 139.395 174.013 139.395 174.013C139.464 173.936 139.48 173.917 139.48 173.917C139.542 173.837 139.556 173.817 139.556 173.817C139.614 173.729 139.63 173.702 139.63 173.702C139.674 173.62 139.687 173.592 139.687 173.592C139.724 173.507 139.735 173.478 139.735 173.478C139.765 173.39 139.774 173.36 139.774 173.36C139.797 173.269 139.804 173.238 139.804 173.238C139.816 173.176 139.82 173.144 139.82 173.144C139.828 173.08 139.831 173.048 139.831 173.048C139.836 172.983 139.838 172.95 139.838 172.95C139.84 172.883 139.84 172.85 139.84 172.85C139.839 172.782 139.837 172.748 139.837 172.748C139.833 172.679 139.829 172.644 139.829 172.644C139.821 172.573 139.817 172.538 139.817 172.538C139.807 172.466 139.801 172.43 139.801 172.43C139.682 171.765 139.378 171.153 139.095 170.641C138.689 169.922 138.252 169.3 137.765 168.648C136.497 166.933 133.405 163.483 131.987 161.821C130.864 160.479 129.725 159.066 128.791 157.586C128.26 156.727 127.7 155.728 127.531 154.743C127.519 154.663 127.516 154.636 127.516 154.636C127.507 154.557 127.505 154.531 127.505 154.531C127.499 154.454 127.498 154.429 127.498 154.429C127.495 154.354 127.495 154.329 127.495 154.329C127.496 154.255 127.496 154.231 127.496 154.231C127.5 154.159 127.502 154.135 127.502 154.135C127.509 154.065 127.512 154.042 127.512 154.042C127.527 153.951 127.531 153.929 127.531 153.929C127.551 153.841 127.557 153.82 127.557 153.82C127.583 153.735 127.59 153.715 127.59 153.715C127.622 153.634 127.63 153.614 127.63 153.614C127.668 153.536 127.678 153.517 127.678 153.517C127.722 153.442 127.733 153.424 127.733 153.424C127.796 153.335 127.809 153.318 127.809 153.318C127.883 153.232 127.893 153.221 127.893 153.221C127.965 153.149 127.986 153.13 127.986 153.13C128.076 153.053 128.1 153.034 128.1 153.034C128.173 152.979 128.198 152.961 128.198 152.961C128.275 152.908 128.301 152.891 128.301 152.891C128.956 152.476 129.76 152.257 130.409 151.89C130.487 151.844 130.512 151.828 130.512 151.828C130.586 151.78 130.61 151.764 130.61 151.764C130.702 151.697 130.724 151.68 130.724 151.68C130.807 151.61 130.827 151.592 130.827 151.592C130.91 151.508 130.918 151.499 130.918 151.499C130.989 151.41 130.996 151.4 130.996 151.4C131.049 151.316 131.055 151.306 131.055 151.306C131.092 151.229 131.099 151.213 131.099 151.213C131.127 151.134 131.131 151.118 131.131 151.118C131.15 151.035 131.153 151.018 131.153 151.018C131.164 150.931 131.165 150.914 131.165 150.914C131.168 150.824 131.168 150.806 131.168 150.806C131.165 150.731 131.163 150.712 131.163 150.712C131.155 150.635 131.152 150.616 131.152 150.616C131.139 150.537 131.135 150.517 131.135 150.517C131.117 150.436 131.112 150.415 131.112 150.415C131.096 150.353 131.084 150.311 131.084 150.311C131.058 150.226 131.043 150.183 131.043 150.183C131.012 150.096 130.995 150.052 130.995 150.052C130.743 149.431 130.435 148.968 130.072 148.431C129.376 147.419 128.201 145.977 127.51 144.962C127.056 144.297 126.646 143.584 126.298 142.858C125.846 141.929 125.324 140.527 124.899 139.583" stroke="#E9896A" stroke-width="2" stroke-miterlimit="10" stroke-linecap="round" stroke-linejoin="round"/>
<path d="M62.5658 135.475C62.5358 135.706 62.5008 136.022 62.4798 136.254C62.3688 137.454 62.3218 138.98 62.0188 140.136C61.7768 141.137 61.3168 142.123 60.7338 142.945C60.1468 143.784 59.4148 144.529 58.6668 145.224C56.4168 147.297 53.2848 149.508 50.9498 151.494C49.7648 152.53 48.4288 153.684 47.6988 155.081C47.6568 155.168 47.6368 155.212 47.6368 155.212C47.5988 155.299 47.5818 155.342 47.5818 155.342C47.5488 155.428 47.5328 155.471 47.5328 155.471C47.5038 155.556 47.4908 155.598 47.4908 155.598C47.4668 155.682 47.4558 155.724 47.4558 155.724C47.4368 155.807 47.4288 155.849 47.4288 155.849C47.4148 155.932 47.4088 155.973 47.4088 155.973C47.3998 156.055 47.3958 156.095 47.3958 156.095C47.3918 156.176 47.3908 156.216 47.3908 156.216C47.3918 156.296 47.3928 156.322 47.3928 156.322C47.3988 156.401 47.4008 156.427 47.4008 156.427C47.4108 156.505 47.4148 156.531 47.4148 156.531C47.4288 156.608 47.4348 156.634 47.4348 156.634C47.4538 156.711 47.4608 156.736 47.4608 156.736C47.4838 156.812 47.4918 156.837 47.4918 156.837C47.5188 156.912 47.5278 156.937 47.5278 156.937C47.5578 157.012 47.5688 157.036 47.5688 157.036C47.6028 157.11 47.6148 157.135 47.6148 157.135C47.6518 157.209 47.6648 157.233 47.6648 157.233C48.0328 157.887 48.4998 158.323 49.0068 158.82C49.8508 159.629 50.9178 160.547 51.4088 161.603C51.4488 161.692 51.4618 161.722 51.4618 161.722C51.4988 161.812 51.5108 161.843 51.5108 161.843C51.6738 162.268 51.7318 162.677 51.7158 163.063C51.6778 163.822 51.4108 164.492 51.1088 165.124C50.7468 165.862 50.2858 166.573 49.8118 167.244C48.3538 169.298 46.0898 171.777 44.4918 173.737C43.7918 174.6 43.0738 175.513 42.4898 176.458C42.0858 177.116 41.6768 177.896 41.5718 178.639C41.5658 178.687 41.5608 178.734 41.5608 178.734C41.5568 178.781 41.5528 178.828 41.5528 178.828C41.5488 178.92 41.5488 178.966 41.5488 178.966C41.5508 179.056 41.5528 179.1 41.5528 179.1C41.5608 179.188 41.5658 179.231 41.5658 179.231C41.5778 179.305 41.5838 179.335 41.5838 179.335C41.6048 179.426 41.6128 179.456 41.6128 179.456C41.6398 179.544 41.6498 179.573 41.6498 179.573C41.6828 179.659 41.6948 179.687 41.6948 179.687C41.7338 179.771 41.7478 179.798 41.7478 179.798C41.7928 179.879 41.8088 179.906 41.8088 179.906C41.8588 179.985 41.8768 180.011 41.8768 180.011C41.9328 180.088 41.9518 180.114 41.9518 180.114C42.0128 180.189 42.0338 180.214 42.0338 180.214C42.0998 180.287 42.1228 180.311 42.1228 180.311C42.1938 180.382 42.2178 180.406 42.2178 180.406C42.2928 180.476 42.3188 180.499 42.3188 180.499C43.0578 181.119 43.8208 181.427 44.6628 181.786L46.7538 182.614C47.6368 182.976 48.6518 183.437 49.3648 184.025C49.4548 184.101 49.4838 184.126 49.4838 184.126C49.5698 184.204 49.5978 184.23 49.5978 184.23C49.6788 184.31 49.7058 184.337 49.7058 184.337C49.7828 184.419 49.8078 184.447 49.8078 184.447C49.8808 184.531 49.9038 184.56 49.9038 184.56C49.9718 184.646 49.9928 184.676 49.9928 184.676C50.0558 184.765 50.0758 184.795 50.0758 184.795C50.1318 184.883 50.1488 184.913 50.1488 184.913C50.1998 185.003 50.2158 185.034 50.2158 185.034C50.2468 185.095 50.2628 185.126 50.2628 185.126C50.8198 186.355 50.6058 187.645 50.4198 188.889C50.2798 189.699 50.0538 190.823 49.9588 191.629C49.8778 192.316 49.8548 193.08 50.0308 193.7C50.0578 193.791 50.0678 193.822 50.0678 193.822C50.0988 193.911 50.1098 193.941 50.1098 193.941C50.1448 194.028 50.1568 194.057 50.1568 194.057C50.1958 194.142 50.2098 194.169 50.2098 194.169C50.2508 194.246 50.2638 194.271 50.2638 194.271C50.3068 194.344 50.3218 194.367 50.3218 194.367C50.3678 194.438 50.3838 194.461 50.3838 194.461C50.4508 194.552 50.4678 194.575 50.4678 194.575C50.5398 194.664 50.5578 194.685 50.5578 194.685C50.6348 194.771 50.6538 194.792 50.6538 194.792C50.7348 194.875 50.7768 194.916 50.7768 194.916C50.8638 194.996 50.9078 195.035 50.9078 195.035C52.3308 196.219 54.2838 196.565 55.7818 197.6C55.8738 197.667 55.9188 197.702 55.9188 197.702C56.0058 197.772 56.0478 197.807 56.0478 197.807C56.1298 197.879 56.1498 197.897 56.1498 197.897C56.2268 197.971 56.2458 197.99 56.2458 197.99C56.3178 198.067 56.3358 198.086 56.3358 198.086C56.4028 198.165 56.4188 198.185 56.4188 198.185C56.4808 198.267 56.4948 198.287 56.4948 198.287C56.5508 198.371 56.5638 198.393 56.5638 198.393C56.6138 198.48 56.6258 198.502 56.6258 198.502C56.6678 198.588 56.6818 198.62 56.6818 198.62C56.7088 198.685 56.7218 198.718 56.7218 198.718C56.7448 198.785 56.7558 198.818 56.7558 198.818C56.7758 198.886 56.7848 198.921 56.7848 198.921C56.8018 198.991 56.8088 199.026 56.8088 199.026C56.8218 199.098 56.8278 199.134 56.8278 199.134C56.8378 199.207 56.8418 199.244 56.8418 199.244C56.8488 199.319 56.8508 199.357 56.8508 199.357C56.8548 199.433 56.8558 199.472 56.8558 199.472C56.8568 199.55 56.8558 199.589 56.8558 199.589C56.8338 200.264 56.6728 200.785 56.4748 201.363C56.2078 202.112 55.8438 202.874 55.4898 203.586C53.7938 206.946 51.6038 210.463 51.1778 214.265C50.8278 217.297 51.4788 220.355 52.4668 223.213C53.2698 225.494 55.1148 229.833 56.0858 232.072C56.4138 232.776 56.8858 233.558 57.3688 234.077C58.6348 235.452 60.3228 235.949 62.0368 236.407C64.1248 236.939 67.4438 237.405 69.5968 237.774C71.0988 238.038 72.6738 238.4 74.1428 238.807L79.9028 240.522" stroke="#E9896A" stroke-width="2" stroke-miterlimit="10" stroke-linecap="round" stroke-linejoin="round"/>
<path d="M101.28 118.82C101.871 118.896 103.06 119.062 103.649 119.152L110.774 120.336C111.759 120.475 112.909 120.651 113.852 120.404C113.914 120.386 113.945 120.377 113.945 120.377C114.035 120.347 114.064 120.336 114.064 120.336C114.15 120.301 114.178 120.289 114.178 120.289C114.261 120.25 114.287 120.236 114.287 120.236C114.366 120.192 114.392 120.177 114.392 120.177C114.467 120.129 114.492 120.112 114.492 120.112C114.575 120.05 114.587 120.041 114.587 120.041C114.676 119.963 114.687 119.953 114.687 119.953C114.771 119.867 114.781 119.856 114.781 119.856C114.854 119.768 114.865 119.754 114.865 119.754C114.929 119.665 114.939 119.65 114.939 119.65C114.989 119.571 115.008 119.539 115.008 119.539C115.045 119.472 115.063 119.438 115.063 119.438C115.098 119.368 115.114 119.332 115.114 119.332C115.146 119.259 115.162 119.221 115.162 119.221C115.192 119.145 115.206 119.106 115.206 119.106C115.474 118.318 115.503 117.597 115.521 116.791C115.54 115.47 115.331 113.405 115.231 112.069C115.16 110.954 115.097 109.728 115.439 108.66C115.47 108.568 115.487 108.523 115.487 108.523C115.521 108.433 115.54 108.389 115.54 108.389C115.578 108.302 115.598 108.259 115.598 108.259C115.639 108.174 115.661 108.132 115.661 108.132C115.706 108.05 115.729 108.009 115.729 108.009C115.777 107.929 115.802 107.89 115.802 107.89C115.854 107.813 115.881 107.775 115.881 107.775C115.937 107.7 115.966 107.664 115.966 107.664C116.042 107.575 116.057 107.557 116.057 107.557C116.138 107.471 116.154 107.454 116.154 107.454C116.24 107.372 116.258 107.356 116.258 107.356C116.349 107.278 116.368 107.262 116.368 107.262C116.445 107.202 116.465 107.188 116.465 107.188C116.546 107.131 116.567 107.117 116.567 107.117C116.652 107.062 116.696 107.036 116.696 107.036C116.834 106.957 116.858 106.946 116.926 106.912C117.618 106.583 118.376 106.477 119.059 106.428C119.793 106.383 120.498 106.414 121.222 106.499C122.732 106.694 124.405 107.093 125.635 107.981C125.712 108.041 125.737 108.061 125.737 108.061C125.81 108.122 125.833 108.143 125.833 108.143C125.923 108.226 125.945 108.247 125.945 108.247C126.028 108.332 126.047 108.353 126.047 108.353C126.122 108.44 126.139 108.462 126.139 108.462C126.205 108.55 126.221 108.573 126.221 108.573C126.278 108.663 126.292 108.686 126.292 108.686C126.34 108.778 126.351 108.801 126.351 108.801C126.388 108.888 126.393 108.902 126.393 108.902C126.421 108.984 126.425 108.998 126.425 108.998C126.446 109.081 126.45 109.095 126.45 109.095C126.466 109.179 126.468 109.193 126.468 109.193C126.477 109.263 126.48 109.292 126.48 109.292C126.485 109.377 126.486 109.405 126.486 109.405C126.486 109.491 126.486 109.519 126.486 109.519C126.482 109.605 126.479 109.634 126.479 109.634C126.47 109.72 126.467 109.749 126.467 109.749C126.401 110.254 126.217 110.705 126.115 111.177C126.101 111.251 126.097 111.275 126.097 111.275C126.086 111.347 126.083 111.37 126.083 111.37C126.076 111.44 126.074 111.463 126.074 111.463C126.071 111.553 126.071 111.564 126.071 111.564C126.076 111.65 126.077 111.66 126.077 111.66C126.092 111.752 126.095 111.762 126.095 111.762C126.122 111.849 126.125 111.858 126.125 111.858C126.17 111.948 126.175 111.957 126.175 111.957C126.244 112.048 126.251 112.056 126.251 112.056C126.331 112.129 126.347 112.141 126.347 112.141C126.432 112.198 126.451 112.209 126.451 112.209C126.529 112.25 126.55 112.26 126.55 112.26C126.637 112.298 126.66 112.307 126.66 112.307C126.731 112.333 126.756 112.341 126.756 112.341C126.832 112.365 126.858 112.373 126.858 112.373C127.701 112.59 128.475 112.583 129.319 112.609C130.989 112.653 133.113 112.502 134.728 112.896C134.816 112.922 134.844 112.931 134.844 112.931C134.927 112.959 134.954 112.968 134.954 112.968C135.033 112.998 135.058 113.008 135.058 113.008C135.132 113.04 135.155 113.051 135.155 113.051C135.246 113.097 135.267 113.109 135.267 113.109C135.349 113.159 135.368 113.172 135.368 113.172C135.458 113.24 135.474 113.255 135.474 113.255C135.558 113.34 135.566 113.349 135.566 113.349C135.635 113.441 135.641 113.45 135.641 113.45C135.69 113.538 135.695 113.548 135.695 113.548C135.73 113.63 135.734 113.641 135.734 113.641C135.761 113.727 135.764 113.738 135.764 113.738C135.783 113.827 135.787 113.85 135.787 113.85C135.797 113.919 135.799 113.942 135.799 113.942C135.805 114.013 135.806 114.037 135.806 114.037C135.808 114.109 135.808 114.134 135.808 114.134C135.812 114.437 135.721 114.948 135.689 115.201C135.678 115.283 135.662 115.45 135.66 115.498C135.657 115.57 135.656 115.594 135.656 115.594C135.656 115.665 135.656 115.688 135.656 115.688C135.66 115.779 135.662 115.802 135.662 115.802C135.673 115.89 135.676 115.912 135.676 115.912C135.694 115.997 135.696 116.007 135.696 116.007C135.724 116.098 135.728 116.108 135.728 116.108C135.766 116.194 135.773 116.207 135.773 116.207C135.822 116.287 135.831 116.3 135.831 116.3C135.902 116.386 135.913 116.398 135.913 116.398C135.997 116.477 136.01 116.488 136.01 116.488C136.093 116.55 136.107 116.561 136.107 116.561C136.183 116.609 136.199 116.619 136.199 116.619C136.282 116.664 136.299 116.673 136.299 116.673C136.388 116.715 136.425 116.731 136.425 116.731C136.501 116.762 136.541 116.776 136.541 116.776C136.622 116.804 136.663 116.818 136.663 116.818C136.748 116.844 136.792 116.856 136.792 116.856C137.49 117.04 138.14 117.071 138.846 117.098C140.095 117.135 141.836 117.048 143.083 117.086L145.328 117.176C146.857 117.243 148.354 116.98 149.805 116.507C151.22 116.051 152.6 115.442 153.872 114.67" stroke="#E9896A" stroke-width="2" stroke-miterlimit="10" stroke-linecap="round" stroke-linejoin="round"/>
<path d="M45.1113 109.998C46.0613 110.416 46.9803 110.665 47.9813 110.872C49.1213 111.1 50.2943 111.231 51.4573 111.259C52.8783 111.277 54.4993 111.202 55.7673 110.586C55.8573 110.538 55.8863 110.522 55.8863 110.522C55.9713 110.472 55.9983 110.455 55.9983 110.455C56.0783 110.403 56.1043 110.385 56.1043 110.385C56.1793 110.33 56.2033 110.312 56.2033 110.312C56.2953 110.236 56.3173 110.216 56.3173 110.216C56.4003 110.136 56.4193 110.115 56.4193 110.115C56.4923 110.031 56.5103 110.009 56.5103 110.009C56.5743 109.921 56.5823 109.908 56.5823 109.908C56.6373 109.816 56.6443 109.803 56.6443 109.803C56.6843 109.721 56.6913 109.708 56.6913 109.708C56.7253 109.624 56.7313 109.61 56.7313 109.61C56.7603 109.524 56.7643 109.509 56.7643 109.509C56.7883 109.421 56.7943 109.391 56.7943 109.391C56.8123 109.301 56.8173 109.27 56.8173 109.27C56.8303 109.178 56.8343 109.147 56.8343 109.147C56.8853 108.654 56.8133 108.164 56.7823 107.695C56.7743 107.592 56.7673 107.382 56.7683 107.321C56.7693 107.231 56.7703 107.201 56.7703 107.201C56.7753 107.113 56.7773 107.083 56.7773 107.083C56.7863 106.997 56.7893 106.969 56.7893 106.969C56.8023 106.885 56.8073 106.858 56.8073 106.858C56.8253 106.777 56.8283 106.764 56.8283 106.764C56.8553 106.673 56.8593 106.66 56.8593 106.66C56.8933 106.573 56.8983 106.56 56.8983 106.56C56.9393 106.477 56.9463 106.465 56.9463 106.465C57.0033 106.375 57.0113 106.364 57.0113 106.364C57.0803 106.28 57.0893 106.27 57.0893 106.27C57.1783 106.185 57.1983 106.168 57.1983 106.168C57.2833 106.105 57.3063 106.09 57.3063 106.09C57.3773 106.046 57.4023 106.032 57.4023 106.032C57.4803 105.992 57.5073 105.979 57.5073 105.979C57.5913 105.942 57.6203 105.93 57.6203 105.93C57.7103 105.896 57.7413 105.885 57.7413 105.885C58.3823 105.679 58.9653 105.652 59.5713 105.625C60.3413 105.601 61.1683 105.636 61.9383 105.679C62.8903 105.739 66.0563 105.985 66.9583 105.992C67.6893 106.005 68.5603 106 69.2363 105.827C69.3263 105.802 69.3543 105.793 69.3543 105.793C69.4363 105.766 69.4623 105.757 69.4623 105.757C69.5393 105.728 69.5643 105.718 69.5643 105.718C69.6363 105.687 69.6603 105.676 69.6603 105.676C69.7503 105.631 69.7713 105.62 69.7713 105.62C69.8543 105.572 69.8743 105.56 69.8743 105.56C69.9513 105.51 69.9703 105.497 69.9703 105.497C70.0603 105.431 70.0773 105.418 70.0773 105.418C70.1603 105.35 70.1923 105.322 70.1923 105.322C70.2833 105.237 70.3123 105.208 70.3123 105.208C70.4723 105.043 70.5363 104.968 70.6633 104.831C70.7443 104.747 70.7713 104.719 70.7713 104.719C70.8553 104.639 70.8843 104.612 70.8843 104.612C70.9753 104.537 70.9903 104.524 70.9903 104.524C71.0713 104.465 71.0883 104.454 71.0883 104.454C71.1763 104.4 71.1943 104.39 71.1943 104.39C71.2703 104.351 71.2893 104.341 71.2893 104.341C71.3703 104.305 71.3913 104.297 71.3913 104.297C71.4793 104.266 71.5013 104.258 71.5013 104.258C71.5893 104.233 71.6113 104.227 71.6113 104.227C71.6993 104.207 71.7213 104.203 71.7213 104.203C72.7463 104.036 73.7713 104.265 74.7263 104.541C76.2123 105.005 77.8033 105.811 78.7073 107.072C78.7643 107.156 78.7823 107.184 78.7823 107.184C78.8353 107.269 78.8533 107.298 78.8533 107.298C78.9033 107.384 78.9193 107.413 78.9193 107.413C78.9653 107.501 78.9803 107.53 78.9803 107.53C79.0223 107.619 79.0363 107.649 79.0363 107.649C79.5033 108.726 79.2943 109.878 79.0083 110.909C78.7483 111.853 78.1293 113.3 77.7663 114.224C77.5003 114.915 77.2023 115.723 77.1383 116.444C77.1323 116.529 77.1303 116.557 77.1303 116.557C77.1273 116.64 77.1273 116.668 77.1273 116.668C77.1273 116.749 77.1283 116.776 77.1283 116.776C77.1313 116.849 77.1343 116.885 77.1343 116.885C77.1413 116.956 77.1453 116.991 77.1453 116.991C77.1553 117.06 77.1603 117.095 77.1603 117.095C77.1733 117.163 77.1803 117.196 77.1803 117.196C77.1963 117.262 77.2053 117.294 77.2053 117.294C77.2243 117.358 77.2343 117.39 77.2343 117.39C77.2563 117.453 77.2683 117.483 77.2683 117.483C77.3063 117.574 77.3193 117.604 77.3193 117.604C77.3633 117.692 77.3783 117.72 77.3783 117.72C77.4273 117.804 77.4443 117.832 77.4443 117.832C77.4983 117.913 77.5173 117.939 77.5173 117.939C77.5763 118.017 77.5973 118.042 77.5973 118.042C77.6623 118.117 77.6843 118.141 77.6843 118.141C77.7533 118.212 77.7773 118.236 77.7773 118.236C77.8513 118.304 77.8773 118.327 77.8773 118.327C77.9563 118.392 77.9833 118.413 77.9833 118.413C78.0663 118.475 78.0953 118.495 78.0953 118.495C78.1823 118.554 78.2123 118.573 78.2123 118.573C79.3433 119.25 80.5753 119.353 81.8073 119.39C83.6973 119.414 85.8063 119.093 87.6863 118.861" stroke="#E9896A" stroke-width="2" stroke-miterlimit="10" stroke-linecap="round" stroke-linejoin="round"/>
<path d="M43.2839 104.64C32.5589 110.856 23.0419 119.372 16.3599 129.862C12.4309 136.012 9.42993 142.818 6.99093 149.685C4.66893 156.37 3.04291 163.38 2.40591 170.433C1.90891 175.993 2.05091 181.67 2.44491 187.232C3.02991 195.152 4.39288 203.181 6.27688 210.899C7.30988 215.059 8.65691 219.652 9.66891 223.817C10.9459 228.988 12.1589 234.612 13.1379 239.848C14.5099 247.111 15.5879 254.757 16.4809 262.092C17.3619 268.67 18.5559 275.513 20.1739 281.951C21.1099 285.655 22.2319 289.409 23.5779 292.986C24.5599 295.554 25.7209 298.158 26.6279 300.755C29.0299 307.441 30.7129 314.426 31.5309 321.486C32.5589 330.736 32.5649 340.19 31.9529 349.471C31.4969 355.636 30.9199 362.113 29.7869 368.193C29.4349 369.972 29.0329 371.808 28.3979 373.512C28.2959 373.767 28.1759 374.085 28.0549 374.335C27.7829 374.908 27.4359 375.63 27.1769 376.209C26.4329 377.852 25.7309 379.593 25.1309 381.295C24.6879 382.557 24.2469 383.915 23.9469 385.222C23.5039 387.144 23.2619 389.131 23.1439 391.098C23.0839 392.211 23.0389 393.511 23.0719 394.629C23.1309 396.115 23.4769 397.697 24.4689 398.776C24.5559 398.868 24.5999 398.912 24.5999 398.912C25.3709 399.686 26.4109 400.049 27.4109 400.166C33.7969 400.315 49.4189 400.172 55.9789 400.22" stroke="#E9896A" stroke-width="2.75" stroke-miterlimit="10" stroke-linecap="round" stroke-linejoin="round"/>
<path d="M30.6161 138.425C29.4131 155.029 28.147 172.896 28.449 189.501C28.537 193.176 28.708 196.993 29.13 200.643C29.52 203.865 30.185 207.399 30.854 210.582C31.987 215.781 33.457 220.976 35.562 225.866C36.39 227.845 37.4821 229.773 38.3431 231.735C39.3761 234.075 40.257 236.555 40.983 239.006C42.327 243.544 43.2391 248.312 43.8741 253.004C46.4821 276.074 52.127 321.531 53.837 344.147C54.105 347.878 54.358 352.177 54.422 355.912C54.445 357.464 54.438 359.17 54.344 360.719C54.274 361.786 54.118 363.125 53.984 364.187C53.407 368.63 52.4171 373.126 51.0641 377.397C50.1941 380.165 49.0151 382.939 48.3171 385.76C47.1581 390.316 46.269 397.245 51.544 399.452C52.987 400.064 54.4501 400.204 55.9811 400.221C61.0141 400.219 71.6061 400.222 76.5721 400.221C76.9121 400.233 77.331 400.181 77.635 400.131C78.602 399.986 79.506 399.459 80.112 398.813C80.711 398.156 81.0431 397.529 81.3401 396.751C81.7791 395.568 81.988 394.301 82.083 393.046C82.226 391.059 82.086 389.043 81.833 387.07C81.317 383.236 80.4701 379.395 79.3561 375.691C78.8541 373.993 78.187 372.299 77.868 370.556C77.321 367.77 77.279 364.883 77.524 362.061C77.698 359.783 78.193 357.505 78.529 355.249C78.96 352.292 79.1851 349.156 79.2671 346.167C79.3401 343.315 79.28 340.231 79.127 337.382C78.16 321.161 77.1041 302.672 77.3951 286.464C77.4981 278.045 78.091 263.811 78.474 255.312C78.627 252.518 78.894 247.24 79.19 244.436C79.358 242.944 79.623 241.425 80.062 239.987C80.486 238.613 81.078 237.263 81.997 236.146C82.289 235.805 82.529 235.561 82.79 235.271C83.125 234.901 83.4711 234.484 83.7801 234.09C84.6711 232.955 85.429 231.689 85.912 230.341C85.944 230.27 85.961 230.235 85.961 230.235C85.995 230.167 86.013 230.133 86.013 230.133C86.049 230.067 86.068 230.035 86.068 230.035C86.106 229.972 86.126 229.941 86.126 229.941C86.187 229.851 86.207 229.821 86.207 229.821C86.271 229.736 86.294 229.708 86.294 229.708C86.362 229.628 86.386 229.602 86.386 229.602C86.458 229.527 86.483 229.503 86.483 229.503C86.559 229.433 86.5851 229.411 86.5851 229.411C86.6651 229.346 86.6921 229.326 86.6921 229.326C86.7761 229.266 86.8041 229.247 86.8041 229.247C86.8911 229.193 86.9211 229.175 86.9211 229.175C87.0121 229.126 87.0431 229.11 87.0431 229.11C87.1061 229.08 87.138 229.066 87.138 229.066C87.203 229.039 87.2361 229.026 87.2361 229.026C87.3031 229.001 87.337 228.99 87.337 228.99C87.406 228.968 87.441 228.957 87.441 228.957C87.512 228.937 87.548 228.928 87.548 228.928C87.621 228.911 87.657 228.903 87.657 228.903C87.731 228.889 87.769 228.882 87.769 228.882C87.845 228.87 87.884 228.865 87.884 228.865C88.49 228.795 88.942 228.855 89.489 228.959C89.918 229.049 90.351 229.17 90.76 229.329C92.204 229.875 93.369 230.974 94.123 232.237C94.556 232.95 94.889 233.726 95.149 234.517C95.536 235.706 95.9561 237.202 96.2751 238.423C97.1091 241.638 98.016 245.777 98.661 249.056C99.102 251.485 99.44 254.237 99.704 256.697C101.204 271.6 101.426 288.168 102.423 303.152C103.352 319.015 105.382 336.106 105.584 351.974C105.604 356.423 105.545 361.121 105.91 365.558C106.123 368.206 106.453 370.937 107.102 373.517C108.331 379.024 108.487 384.757 108.505 390.379C108.527 392.21 108.609 394.106 108.907 395.917C109.108 397.073 109.4 398.349 110.051 399.296C110.103 399.368 110.121 399.391 110.121 399.391C110.192 399.481 110.21 399.502 110.21 399.502C110.283 399.585 110.302 399.605 110.302 399.605C110.377 399.682 110.396 399.7 110.396 399.7C110.473 399.77 110.492 399.787 110.492 399.787C110.571 399.851 110.591 399.866 110.591 399.866C110.672 399.924 110.692 399.937 110.692 399.937C110.775 399.988 110.796 400 110.796 400C110.881 400.045 110.902 400.055 110.902 400.055C110.988 400.093 111.01 400.102 111.01 400.102C111.098 400.134 111.121 400.141 111.121 400.141C111.211 400.167 111.234 400.172 111.234 400.172C111.326 400.191 111.349 400.195 111.349 400.195C111.419 400.205 111.443 400.208 111.443 400.208C111.515 400.214 111.539 400.216 111.539 400.216C117.649 400.215 129.503 400.233 135.623 400.209C136.219 400.178 136.778 400.061 137.282 399.853C137.374 399.814 137.42 399.793 137.42 399.793C137.51 399.75 137.555 399.728 137.555 399.728C137.643 399.682 137.687 399.659 137.687 399.659C137.773 399.61 137.816 399.585 137.816 399.585C137.9 399.533 137.942 399.507 137.942 399.507C138.024 399.452 138.065 399.424 138.065 399.424C138.145 399.366 138.185 399.337 138.185 399.337C138.263 399.276 138.302 399.245 138.302 399.245C138.378 399.181 138.416 399.149 138.416 399.149C138.49 399.082 138.526 399.048 138.526 399.048C138.598 398.978 138.633 398.942 138.633 398.942C139.768 397.753 140.127 396.22 140.372 394.669C140.673 392.641 140.438 390.516 139.559 388.654C138.728 386.894 137.681 385.2 136.508 383.647C135.869 382.774 135.107 381.959 134.451 381.103C133.148 379.412 132.071 377.54 131.241 375.574C130.371 373.567 130.056 371.355 129.768 369.202C129.049 363.374 128.901 353.41 128.593 347.42C128.246 340.884 127.555 330.935 127.596 324.507C127.581 316.954 127.898 308.48 128.3 300.932C129.079 288.218 130.227 269.528 131.492 256.981C132.331 249.189 133.504 241.245 136.089 233.821C136.451 232.83 136.883 231.675 137.318 230.71C137.731 229.771 138.227 228.782 138.626 227.838C139.757 225.228 140.767 222.432 141.635 219.722C143.378 214.241 144.768 208.442 145.912 202.807C147.129 196.783 148.116 190.48 148.716 184.362C149.015 181.296 149.249 177.825 149.349 174.743C149.443 171.397 149.426 167.386 149.545 164.049C149.719 159.25 150.041 154.301 150.816 149.557L150.91 149.005L151.007 148.465L151.107 147.938L151.157 147.675L151.204 147.408L151.249 147.137L151.292 146.862L151.332 146.583L151.37 146.3L151.406 146.013L151.439 145.722L151.47 145.427L151.499 145.128L151.549 144.517C152.007 137.287 150.859 129.986 149.563 122.892" stroke="#E9896A" stroke-width="2.75" stroke-miterlimit="10" stroke-linecap="round" stroke-linejoin="round"/>
<path d="M47.9791 80.909C47.9591 80.992 47.9521 81.02 47.9521 81.02C47.9291 81.103 47.9201 81.131 47.9201 81.131C47.4151 82.657 46.0411 83.788 44.9811 84.923C44.6551 85.264 44.3001 85.668 44.0921 85.988C44.0401 86.069 44.0151 86.109 44.0151 86.109C43.9681 86.189 43.9471 86.229 43.9471 86.229C43.9061 86.308 43.8971 86.328 43.8971 86.328C43.8611 86.406 43.8531 86.426 43.8531 86.426C43.8231 86.504 43.8161 86.523 43.8161 86.523C43.7911 86.6 43.7861 86.619 43.7861 86.619C43.7671 86.695 43.7631 86.714 43.7631 86.714C43.7501 86.789 43.7471 86.808 43.7471 86.808C43.7391 86.898 43.7391 86.913 43.7391 86.913C43.7401 87.003 43.7411 87.018 43.7411 87.018C43.7501 87.107 43.7531 87.122 43.7531 87.122C43.7701 87.21 43.7741 87.225 43.7741 87.225C43.7991 87.313 43.8041 87.327 43.8041 87.327C43.8361 87.414 43.8421 87.428 43.8421 87.428C43.8741 87.5 43.8871 87.529 43.8871 87.529C43.9321 87.615 43.9481 87.644 43.9481 87.644C43.9991 87.73 44.0172 87.759 44.0172 87.759C44.3122 88.211 44.7191 88.622 45.0481 89.008C45.2301 89.218 45.4491 89.502 45.5641 89.678C45.6811 89.854 45.7641 90.006 45.8221 90.12C45.8591 90.197 45.8771 90.236 45.8771 90.236C45.9111 90.315 45.9281 90.355 45.9281 90.355C45.9591 90.435 45.9741 90.476 45.9741 90.476C46.0021 90.558 46.0151 90.6 46.0151 90.6C46.0391 90.684 46.0501 90.726 46.0501 90.726C46.0701 90.812 46.0791 90.855 46.0791 90.855C46.0951 90.943 46.1021 90.987 46.1021 90.987C46.1141 91.077 46.1191 91.122 46.1191 91.122C46.1251 91.195 46.1271 91.231 46.1271 91.231C46.1301 91.305 46.1311 91.342 46.1311 91.342C46.1371 92.168 45.8771 92.92 45.6101 93.613C45.2851 94.436 44.8261 95.325 44.4151 96.113C43.9181 97.065 43.0471 98.652 42.6401 99.626C42.2981 100.426 41.9831 101.334 41.9741 102.146C41.9741 102.221 41.9751 102.258 41.9751 102.258C41.9781 102.332 41.9801 102.368 41.9801 102.368C41.9861 102.441 41.9891 102.477 41.9891 102.477C41.9971 102.548 42.0021 102.584 42.0021 102.584C42.0161 102.669 42.0211 102.693 42.0211 102.693C42.0361 102.766 42.0421 102.791 42.0421 102.791C42.0601 102.863 42.0671 102.887 42.0671 102.887C42.0881 102.958 42.0961 102.981 42.0961 102.981C42.1201 103.051 42.1281 103.074 42.1281 103.074C42.1631 103.165 42.1731 103.187 42.1731 103.187C42.2131 103.276 42.2341 103.32 42.2341 103.32C42.2781 103.407 42.3011 103.45 42.3011 103.45C42.3501 103.535 42.3751 103.577 42.3751 103.577C42.4281 103.66 42.4551 103.701 42.4551 103.701C42.5111 103.782 42.5401 103.822 42.5401 103.822C43.2911 104.834 44.4361 105.49 45.1661 106.454C45.2221 106.531 45.2481 106.569 45.2481 106.569C45.3001 106.647 45.3251 106.686 45.3251 106.686C45.3731 106.765 45.3951 106.806 45.3951 106.806C45.4381 106.887 45.4491 106.908 45.4491 106.908C45.4881 106.991 45.4981 107.011 45.4981 107.011C45.5331 107.095 45.5421 107.116 45.5421 107.116C45.5731 107.202 45.5801 107.223 45.5801 107.223C45.6071 107.31 45.6131 107.333 45.6131 107.333C45.6351 107.422 45.6401 107.445 45.6401 107.445C45.6571 107.536 45.6611 107.559 45.6611 107.559C45.6701 107.629 45.6731 107.657 45.6731 107.657C45.6801 107.744 45.6821 107.774 45.6821 107.774C45.6851 107.863 45.6851 107.893 45.6851 107.893C45.6741 108.571 45.4531 109.164 45.2291 109.729C44.9861 110.345 44.2281 111.839 43.9331 112.455C43.4681 113.456 42.9531 114.63 43.0211 115.718C43.0261 115.784 43.0302 115.817 43.0302 115.817C43.0382 115.882 43.0421 115.915 43.0421 115.915C43.0521 115.98 43.0581 116.012 43.0581 116.012C43.0711 116.076 43.0781 116.108 43.0781 116.108C43.0931 116.171 43.1011 116.203 43.1011 116.203C43.1191 116.265 43.1281 116.296 43.1281 116.296C43.1591 116.388 43.1711 116.419 43.1711 116.419C43.2081 116.509 43.2211 116.539 43.2211 116.539C43.2641 116.628 43.2791 116.657 43.2791 116.657C43.3161 116.724 43.3381 116.762 43.3381 116.762C43.3851 116.837 43.4091 116.873 43.4091 116.873C43.4611 116.946 43.4871 116.982 43.4871 116.982C43.5431 117.054 43.5731 117.089 43.5731 117.089C43.6341 117.159 43.6661 117.194 43.6661 117.194C43.7311 117.263 43.7651 117.297 43.7651 117.297C43.8351 117.364 43.8711 117.398 43.8711 117.398C43.9451 117.464 43.9831 117.497 43.9831 117.497C44.5911 117.996 45.1411 118.266 45.8251 118.574C46.7691 118.985 47.8021 119.315 48.7891 119.612C50.6831 120.169 53.2661 120.819 55.0821 121.536C55.6401 121.759 56.2001 122.014 56.7101 122.333C56.9311 122.473 57.0921 122.593 57.2161 122.693C57.2911 122.756 57.3271 122.787 57.3271 122.787C57.3981 122.851 57.4321 122.883 57.4321 122.883C57.4981 122.948 57.5302 122.981 57.5302 122.981C57.5922 123.048 57.6211 123.081 57.6211 123.081C57.6781 123.149 57.7051 123.183 57.7051 123.183C57.7571 123.252 57.7821 123.287 57.7821 123.287C57.8291 123.358 57.8521 123.393 57.8521 123.393C57.9041 123.481 57.9182 123.508 57.9182 123.508C57.9582 123.588 57.9711 123.615 57.9711 123.615C58.0061 123.696 58.0172 123.724 58.0172 123.724C58.0472 123.807 58.0571 123.835 58.0571 123.835C58.0831 123.919 58.0901 123.947 58.0901 123.947C58.1111 124.032 58.1171 124.061 58.1171 124.061C58.1341 124.148 58.1381 124.177 58.1381 124.177C58.1501 124.265 58.1541 124.294 58.1541 124.294C58.1621 124.383 58.1641 124.413 58.1641 124.413C58.1681 124.503 58.1691 124.534 58.1691 124.534C58.1691 125.373 57.9101 126.055 57.6241 126.79C57.1271 128.046 56.2981 129.489 56.1231 130.828C56.1131 130.92 56.1111 130.95 56.1111 130.95C56.1051 131.041 56.1031 131.071 56.1031 131.071C56.1001 131.161 56.1001 131.19 56.1001 131.19C56.1011 131.278 56.1021 131.308 56.1021 131.308C56.1071 131.395 56.1091 131.424 56.1091 131.424C56.1181 131.51 56.1221 131.538 56.1221 131.538C56.1351 131.623 56.1401 131.651 56.1401 131.651C56.1561 131.73 56.1661 131.769 56.1661 131.769C56.1871 131.846 56.1981 131.885 56.1981 131.885C56.2231 131.961 56.2361 131.999 56.2361 131.999C56.2651 132.074 56.2802 132.111 56.2802 132.111C56.3132 132.184 56.3311 132.221 56.3311 132.221C56.3681 132.293 56.3881 132.329 56.3881 132.329C56.4291 132.4 56.4511 132.435 56.4511 132.435C56.4961 132.505 56.5191 132.539 56.5191 132.539C56.5681 132.608 56.5931 132.641 56.5931 132.641C56.6461 132.708 56.6731 132.742 56.6731 132.742C56.7291 132.808 56.7581 132.841 56.7581 132.841C56.8181 132.906 56.8491 132.938 56.8491 132.938C56.9121 133.002 56.9451 133.034 56.9451 133.034C57.5331 133.58 58.0831 133.872 58.7461 134.191C59.4501 134.518 60.2061 134.786 60.9471 135.018C65.5781 136.403 71.1021 137.123 75.7011 138.628L82.6271 140.887C85.1751 141.692 87.8271 142.373 90.4751 142.74C93.7161 143.19 97.0611 143.259 100.329 143.176C106.281 142.974 112.346 142.356 118.159 141.035C120.175 140.545 122.767 139.828 124.808 139.592C127.244 139.265 130.849 139.296 133.333 139.217C134.552 139.169 135.874 139.105 137.078 138.931C137.883 138.812 138.836 138.624 139.519 138.251C139.581 138.216 139.612 138.198 139.612 138.198C139.7 138.143 139.728 138.124 139.728 138.124C139.809 138.066 139.835 138.047 139.835 138.047C139.909 137.987 139.933 137.966 139.933 137.966C140.021 137.881 140.042 137.86 140.042 137.86C140.118 137.771 140.136 137.748 140.136 137.748C140.185 137.678 140.2 137.654 140.2 137.654C140.241 137.581 140.253 137.556 140.253 137.556C140.286 137.48 140.296 137.454 140.296 137.454C140.321 137.375 140.328 137.348 140.328 137.348C140.345 137.266 140.349 137.238 140.349 137.238C140.357 137.156 140.358 137.135 140.358 137.135C140.359 137.05 140.358 137.029 140.358 137.029C140.352 136.942 140.35 136.919 140.35 136.919C140.338 136.829 140.334 136.806 140.334 136.806C140.316 136.714 140.31 136.69 140.31 136.69C140.292 136.619 140.286 136.596 140.286 136.596C139.948 135.503 139.062 134.412 138.46 133.46C138.147 132.977 137.79 132.399 137.609 131.87C137.586 131.798 137.578 131.774 137.578 131.774C137.558 131.703 137.552 131.68 137.552 131.68C137.535 131.611 137.53 131.588 137.53 131.588C137.513 131.497 137.51 131.475 137.51 131.475C137.499 131.387 137.497 131.365 137.497 131.365C137.493 131.279 137.493 131.258 137.493 131.258C137.496 131.175 137.497 131.155 137.497 131.155C137.507 131.075 137.51 131.055 137.51 131.055C137.527 130.978 137.533 130.959 137.533 130.959C137.558 130.885 137.565 130.866 137.565 130.866C137.607 130.777 137.619 130.757 137.619 130.757C137.671 130.677 137.686 130.658 137.686 130.658C137.75 130.583 137.767 130.565 137.767 130.565C137.842 130.494 137.861 130.477 137.861 130.477C137.946 130.41 137.968 130.394 137.968 130.394C138.038 130.347 138.063 130.331 138.063 130.331C138.139 130.286 138.166 130.271 138.166 130.271C138.248 130.228 138.276 130.214 138.276 130.214C139.226 129.787 140.145 129.703 141.136 129.569C142.755 129.359 144.938 129.326 146.487 128.841C146.575 128.809 146.603 128.798 146.603 128.798C146.685 128.764 146.712 128.753 146.712 128.753C146.789 128.718 146.814 128.705 146.814 128.705C146.885 128.668 146.908 128.655 146.908 128.655C146.994 128.602 147.014 128.589 147.014 128.589C147.09 128.533 147.107 128.518 147.107 128.518C147.186 128.443 147.201 128.427 147.201 128.427C147.268 128.34 147.274 128.33 147.274 128.33C147.319 128.248 147.324 128.237 147.324 128.237C147.356 128.15 147.359 128.139 147.359 128.139C147.379 128.048 147.381 128.036 147.381 128.036C147.39 127.953 147.391 127.941 147.391 127.941C147.392 127.855 147.392 127.843 147.392 127.843C147.386 127.755 147.383 127.729 147.383 127.729C147.372 127.651 147.368 127.625 147.368 127.625C147.352 127.545 147.346 127.518 147.346 127.518C147.289 127.288 147.258 127.209 147.199 127.04C147.097 126.765 146.883 126.218 146.82 125.957C146.797 125.866 146.79 125.836 146.79 125.836C146.771 125.745 146.766 125.715 146.766 125.715C146.752 125.625 146.748 125.595 146.748 125.595C146.739 125.506 146.737 125.476 146.737 125.476C146.733 125.387 146.733 125.373 146.733 125.373C146.735 125.285 146.736 125.271 146.736 125.271C146.744 125.184 146.746 125.17 146.746 125.17C146.76 125.084 146.763 125.07 146.763 125.07C146.784 124.986 146.788 124.972 146.788 124.972C146.819 124.88 146.828 124.858 146.828 124.858C146.868 124.77 146.879 124.748 146.879 124.748C146.928 124.661 146.942 124.64 146.942 124.64C147 124.555 147.016 124.534 147.016 124.534C147.083 124.45 147.1 124.43 147.1 124.43C147.175 124.348 147.194 124.327 147.194 124.327C147.276 124.246 147.298 124.226 147.298 124.226C148.092 123.535 148.977 123.184 149.895 122.748C151.25 122.118 152.889 121.479 153.987 120.469C154.064 120.394 154.089 120.369 154.089 120.369C154.162 120.293 154.186 120.268 154.186 120.268C154.255 120.191 154.277 120.165 154.277 120.165C154.342 120.086 154.363 120.06 154.363 120.06C154.423 119.98 154.443 119.953 154.443 119.953C154.499 119.871 154.516 119.844 154.516 119.844C154.567 119.761 154.583 119.733 154.583 119.733C154.629 119.648 154.643 119.619 154.643 119.619C154.683 119.533 154.696 119.505 154.696 119.505C154.731 119.418 154.742 119.388 154.742 119.388C154.773 119.299 154.782 119.269 154.782 119.269C154.808 119.179 154.816 119.148 154.816 119.148C154.837 119.056 154.844 119.025 154.844 119.025C155.014 118.09 154.772 117.251 154.512 116.406C154.008 114.803 153.074 113.016 153.071 111.322C153.075 110.983 153.123 110.682 153.201 110.421C153.23 110.329 153.24 110.299 153.24 110.299C153.273 110.208 153.285 110.178 153.285 110.178C153.322 110.088 153.335 110.059 153.335 110.059C153.375 109.971 153.389 109.941 153.389 109.941C153.757 109.208 154.245 108.713 154.805 108.2C155.422 107.637 156.578 106.806 157.254 106.292C157.633 106.003 158.151 105.573 158.442 105.242C158.515 105.159 158.55 105.117 158.55 105.117C158.617 105.033 158.648 104.992 158.648 104.992C158.708 104.908 158.722 104.887 158.722 104.887C158.776 104.803 158.789 104.782 158.789 104.782C158.837 104.698 158.848 104.677 158.848 104.677C158.89 104.593 158.899 104.571 158.899 104.571C158.934 104.486 158.942 104.465 158.942 104.465C158.97 104.38 158.975 104.364 158.975 104.364C158.996 104.284 158.999 104.268 158.999 104.268C159.014 104.188 159.017 104.172 159.017 104.172C159.027 104.091 159.028 104.075 159.028 104.075C159.033 103.994 159.033 103.978 159.033 103.978C159.033 103.897 159.033 103.88 159.033 103.88C159.029 103.798 159.026 103.766 159.026 103.766C159.019 103.7 159.014 103.667 159.014 103.667C159.003 103.601 158.997 103.568 158.997 103.568C158.983 103.502 158.976 103.469 158.976 103.469C158.96 103.402 158.951 103.369 158.951 103.369C158.854 103.021 158.705 102.709 158.577 102.45C158.251 101.807 157.756 100.929 157.628 100.252C157.613 100.175 157.606 100.136 157.606 100.136C157.594 100.058 157.588 100.019 157.588 100.019C157.443 98.741 158.076 97.494 158.461 96.321C158.742 95.511 158.986 94.565 158.912 93.725C158.853 92.918 158.502 92.17 158.123 91.546C157.637 90.754 157.081 90.084 156.481 89.39L154.52 87.2C153.842 86.416 153.095 85.508 152.683 84.571C151.58 82.081 153.27 79.868 155.017 78.31C156.596 76.917 158.385 75.37 159.655 73.704C161.281 71.647 162.473 69.263 163.489 66.856C165.12 62.957 166.389 58.784 167.473 54.701C168.881 49.313 170.024 43.72 170.831 38.209C171.339 34.608 171.773 30.867 171.783 27.228C171.776 25.914 171.713 24.565 171.45 23.275C171.211 22.07 170.724 20.817 169.898 19.954C169.809 19.862 169.764 19.817 169.764 19.817C168.711 18.788 167.339 18.356 165.977 18.144C164.127 17.873 162.232 18.014 160.396 18.32C154.763 19.291 149.538 21.892 144.708 24.866C138.786 28.507 133.11 33.121 127.883 37.711C126.534 38.828 125.031 40.013 123.316 40.458C122.085 40.778 120.918 40.64 119.723 40.401C118.022 40.044 115.943 39.383 114.242 39.015C107.943 37.489 101.057 39.202 94.6812 39.054C93.5142 39.01 92.3251 38.903 91.2121 38.534C90.3491 38.253 89.5351 37.729 88.9571 37.115C88.2531 36.373 87.7891 35.566 87.3411 34.673C86.7451 33.463 86.0621 31.801 85.4701 30.588C83.2781 26.089 80.4621 21.872 77.3071 17.993C74.2121 14.215 70.7131 10.696 66.8461 7.70702C64.5231 5.94102 62.0381 4.28701 59.2901 3.26401C57.4851 2.60001 55.3061 2.19202 53.5151 3.02302C52.0661 3.71002 51.1621 4.98202 50.4641 6.34202C49.5571 8.15902 49.0361 10.159 48.6351 12.142C47.9031 15.869 47.6241 19.798 47.4281 23.59C47.0661 32.48 46.9011 41.619 48.8661 50.346C49.3971 52.671 50.1801 54.966 51.1501 57.145C51.7091 58.412 52.6381 60.428 53.0661 61.734C53.5091 63.056 53.7811 64.597 53.2201 65.861C52.8551 66.685 52.3171 67.257 51.7171 67.84C50.9161 68.608 49.7841 69.45 48.9481 70.136C48.1381 70.806 47.2371 71.581 46.7151 72.474C46.6651 72.562 46.6501 72.591 46.6501 72.591C46.6041 72.679 46.5901 72.709 46.5901 72.709C46.5481 72.798 46.5351 72.828 46.5351 72.828C46.4971 72.918 46.4851 72.948 46.4851 72.948C46.4511 73.038 46.4411 73.069 46.4411 73.069C46.4121 73.16 46.4031 73.19 46.4031 73.19C46.3781 73.282 46.3711 73.312 46.3711 73.312C46.3531 73.394 46.3471 73.421 46.3471 73.421C46.3321 73.503 46.3281 73.531 46.3281 73.531C46.3171 73.614 46.3141 73.642 46.3141 73.642C46.3061 73.725 46.3041 73.753 46.3041 73.753C46.2991 73.837 46.2981 73.865 46.2981 73.865C46.2821 74.772 46.5681 75.525 46.8781 76.334C47.3621 77.569 48.0961 78.995 48.0601 80.333C48.0561 80.421 48.0541 80.45 48.0541 80.45C48.0471 80.537 48.0441 80.567 48.0441 80.567C48.0341 80.654 48.0302 80.683 48.0302 80.683C48.0162 80.77 48.0111 80.799 48.0111 80.799C47.9851 80.88 47.9791 80.909 47.9791 80.909Z" stroke="#E9896A" stroke-width="2.75" stroke-miterlimit="10" stroke-linecap="round" stroke-linejoin="round"/>
<path d="M100.495 118.068C99.3501 117.203 98.0351 116.77 96.6521 116.503C94.7771 116.168 92.8021 116.219 90.9851 116.819C87.2251 118.081 85.2001 121.266 86.5941 125.083C87.1931 126.721 88.3661 128.105 89.8081 128.949C91.2431 129.773 92.7251 130.101 94.3161 130.215C95.4991 130.287 96.7021 130.202 97.8581 129.937C98.9391 129.688 100.004 129.265 100.824 128.619C100.912 128.548 100.955 128.512 100.955 128.512C101.039 128.439 101.08 128.402 101.08 128.402C101.161 128.327 101.2 128.289 101.2 128.289C101.277 128.212 101.314 128.173 101.314 128.173C101.387 128.094 101.423 128.054 101.423 128.054C102.685 126.602 102.855 124.714 102.702 122.896C102.623 121.995 102.432 120.963 102.089 120.163C101.736 119.307 101.168 118.583 100.495 118.068Z" stroke="#E9896A" stroke-width="2.75" stroke-miterlimit="10" stroke-linecap="round" stroke-linejoin="round"/>
<path d="M43.2839 104.64C32.5589 110.856 23.0419 119.372 16.3599 129.862C12.4309 136.012 9.42993 142.818 6.99093 149.685C4.66893 156.37 3.04291 163.38 2.40591 170.433C1.90891 175.993 2.05091 181.67 2.44491 187.232C3.02991 195.152 4.39288 203.181 6.27688 210.899C7.30988 215.059 8.65691 219.652 9.66891 223.817C10.9459 228.988 12.1589 234.612 13.1379 239.848C14.5099 247.111 15.5879 254.757 16.4809 262.092C17.3619 268.67 18.5559 275.513 20.1739 281.951C21.1099 285.655 22.2319 289.409 23.5779 292.986C24.5599 295.554 25.7209 298.158 26.6279 300.755C29.0299 307.441 30.7129 314.426 31.5309 321.486C32.5589 330.736 32.5649 340.19 31.9529 349.471C31.4969 355.636 30.9199 362.113 29.7869 368.193C29.4349 369.972 29.0329 371.808 28.3979 373.512C28.2959 373.767 28.1759 374.085 28.0549 374.335C27.7829 374.908 27.4359 375.63 27.1769 376.209C26.4329 377.852 25.7309 379.593 25.1309 381.295C24.6879 382.557 24.2469 383.915 23.9469 385.222C23.5039 387.144 23.2619 389.131 23.1439 391.098C23.0839 392.211 23.0389 393.511 23.0719 394.629C23.1309 396.115 23.4769 397.697 24.4689 398.776C24.5559 398.868 24.5999 398.912 24.5999 398.912C25.4069 399.723 26.5119 400.083 27.5619 400.182C33.7219 400.297 48.0799 400.163 54.3829 400.18C60.1979 400.285 70.7939 400.187 76.5689 400.219C77.2879 400.226 78.1029 400.081 78.7139 399.802C80.4349 399.036 81.2369 397.367 81.6689 395.679C81.9909 394.414 82.1119 393.088 82.1339 391.784C82.1649 389.673 81.9239 387.523 81.5909 385.439C80.9259 381.256 79.8769 377.087 78.5169 373.077C77.1429 368.834 77.1689 364.26 77.7679 359.88C78.0079 358.148 78.3909 356.376 78.6109 354.641C78.9839 351.889 79.1889 348.945 79.2649 346.166C79.3249 343.839 79.2939 341.235 79.1979 338.91C78.7049 330.464 77.9289 316.197 77.6149 307.702C77.1629 296.168 77.3599 283.605 77.7639 272.041C78.0309 266.435 78.5869 250.726 79.1069 245.258C79.2869 243.284 79.5999 241.293 80.2479 239.414C80.5759 238.464 81.0109 237.526 81.5769 236.7C81.6199 236.638 81.6639 236.576 81.6639 236.576C81.7079 236.515 81.7529 236.454 81.7529 236.454C81.7979 236.394 81.8429 236.335 81.8429 236.335C81.8889 236.277 81.9349 236.219 81.9349 236.219C81.9809 236.162 82.0279 236.106 82.0279 236.106C82.0749 236.05 82.1219 235.996 82.1219 235.996C82.1699 235.942 82.2179 235.888 82.2179 235.888C82.2659 235.835 82.3149 235.783 82.3149 235.783L82.4759 235.611L82.6339 235.439C82.8249 235.243 83.0499 234.965 83.2329 234.758C84.3499 233.446 85.3339 231.959 85.9099 230.337C85.9419 230.266 85.9589 230.231 85.9589 230.231C85.9929 230.163 86.0109 230.129 86.0109 230.129C86.0469 230.063 86.0659 230.031 86.0659 230.031C86.1039 229.968 86.1239 229.937 86.1239 229.937C86.1849 229.847 86.2049 229.817 86.2049 229.817C86.2689 229.732 86.2919 229.704 86.2919 229.704C86.3599 229.624 86.3839 229.598 86.3839 229.598C86.4559 229.523 86.4809 229.499 86.4809 229.499C86.5569 229.429 86.5829 229.407 86.5829 229.407C86.6629 229.342 86.6899 229.322 86.6899 229.322C86.7739 229.262 86.8019 229.243 86.8019 229.243C86.8889 229.189 86.9189 229.171 86.9189 229.171C87.0099 229.122 87.0409 229.106 87.0409 229.106C87.1039 229.076 87.1359 229.062 87.1359 229.062C87.2009 229.035 87.2339 229.022 87.2339 229.022C87.3009 228.997 87.3349 228.986 87.3349 228.986C87.4039 228.964 87.4389 228.953 87.4389 228.953C87.5099 228.933 87.5459 228.924 87.5459 228.924C87.6189 228.907 87.6549 228.899 87.6549 228.899C87.7289 228.885 87.7669 228.878 87.7669 228.878C87.8429 228.866 87.8819 228.861 87.8819 228.861C88.4879 228.791 88.9399 228.851 89.4869 228.955C89.9159 229.045 90.3489 229.166 90.7579 229.325C92.2019 229.871 93.3669 230.97 94.1209 232.233C94.5539 232.946 94.8869 233.722 95.1469 234.513C95.5619 235.766 95.9819 237.313 96.3189 238.597C97.1959 242.085 98.0919 246.011 98.7459 249.545C99.0909 251.486 99.3899 253.925 99.6159 255.902C101.204 271.06 101.401 287.904 102.42 303.148C103.282 317.839 105.112 333.95 105.516 348.633C105.674 354.181 105.45 360.022 105.908 365.554C106.121 368.202 106.451 370.933 107.1 373.513C108.329 379.02 108.485 384.753 108.503 390.375C108.525 392.206 108.607 394.102 108.905 395.913C109.106 397.069 109.398 398.345 110.049 399.292C110.101 399.364 110.119 399.387 110.119 399.387C110.19 399.477 110.208 399.498 110.208 399.498C110.281 399.581 110.3 399.601 110.3 399.601C110.375 399.678 110.394 399.696 110.394 399.696C110.471 399.766 110.49 399.783 110.49 399.783C110.569 399.847 110.589 399.862 110.589 399.862C110.67 399.92 110.69 399.933 110.69 399.933C110.773 399.984 110.794 399.996 110.794 399.996C110.879 400.041 110.9 400.051 110.9 400.051C110.986 400.089 111.008 400.098 111.008 400.098C111.096 400.13 111.119 400.137 111.119 400.137C111.209 400.163 111.232 400.168 111.232 400.168C111.324 400.187 111.347 400.191 111.347 400.191C111.417 400.201 111.441 400.204 111.441 400.204C111.513 400.21 111.537 400.212 111.537 400.212C117.647 400.211 129.501 400.229 135.621 400.205C136.217 400.174 136.776 400.057 137.28 399.849C137.372 399.81 137.418 399.789 137.418 399.789C137.508 399.746 137.553 399.724 137.553 399.724C137.641 399.678 137.685 399.655 137.685 399.655C137.771 399.606 137.814 399.581 137.814 399.581C137.898 399.529 137.94 399.503 137.94 399.503C138.022 399.448 138.063 399.42 138.063 399.42C138.143 399.362 138.183 399.333 138.183 399.333C138.261 399.272 138.3 399.241 138.3 399.241C138.376 399.177 138.414 399.145 138.414 399.145C138.488 399.078 138.524 399.044 138.524 399.044C138.596 398.974 138.631 398.938 138.631 398.938C139.766 397.749 140.125 396.216 140.37 394.665C140.671 392.637 140.436 390.512 139.557 388.65C138.726 386.89 137.679 385.196 136.506 383.643C135.867 382.77 135.105 381.955 134.449 381.099C133.146 379.408 132.069 377.536 131.239 375.57C130.369 373.563 130.054 371.351 129.766 369.198C129.047 363.37 128.899 353.406 128.591 347.416C128.244 340.881 127.553 330.931 127.594 324.503C127.579 316.95 127.896 308.476 128.298 300.928C129.067 288.357 130.217 269.713 131.456 257.308C132.273 249.564 133.425 241.676 135.926 234.279C136.297 233.209 136.752 232.003 137.204 230.962C137.646 229.946 138.188 228.854 138.624 227.835C139.755 225.225 140.765 222.429 141.633 219.719C143.376 214.238 144.766 208.439 145.91 202.804C147.127 196.78 148.114 190.477 148.714 184.359C149.013 181.293 149.247 177.822 149.347 174.74C149.441 171.394 149.424 167.383 149.543 164.046C149.717 159.247 150.039 154.298 150.814 149.554L150.908 149.002L151.005 148.462L151.105 147.935L151.155 147.672L151.202 147.405L151.247 147.134L151.29 146.859L151.33 146.58L151.368 146.297L151.404 146.01L151.437 145.719L151.468 145.424L151.497 145.125L151.547 144.514C152.005 137.284 150.857 129.983 149.561 122.889L151.462 122.02C152.251 121.645 153.18 121.155 153.812 120.609C153.911 120.523 153.974 120.464 154.004 120.435C154.094 120.346 154.123 120.316 154.123 120.316C154.207 120.225 154.235 120.194 154.235 120.194C154.288 120.132 154.313 120.101 154.313 120.101C154.363 120.038 154.387 120.006 154.387 120.006C154.434 119.942 154.456 119.91 154.456 119.91C154.499 119.845 154.52 119.812 154.52 119.812C154.56 119.746 154.579 119.712 154.579 119.712C154.615 119.645 154.632 119.61 154.632 119.61C154.662 119.547 154.676 119.515 154.676 119.515C154.703 119.451 154.716 119.418 154.716 119.418C154.74 119.353 154.751 119.32 154.751 119.32C154.772 119.254 154.782 119.221 154.782 119.221C154.8 119.154 154.809 119.12 154.809 119.12C154.825 119.052 154.832 119.018 154.832 119.018C154.845 118.949 154.851 118.915 154.851 118.915C154.861 118.845 154.866 118.81 154.866 118.81C154.954 118.043 154.777 117.333 154.585 116.668C154.395 116.016 153.911 114.766 153.674 114.114C153.34 113.173 153 112.083 153.067 111.101C153.074 111.01 153.077 110.98 153.077 110.98C153.088 110.89 153.092 110.86 153.092 110.86C153.106 110.771 153.111 110.741 153.111 110.741C153.128 110.652 153.134 110.623 153.134 110.623C153.164 110.496 153.174 110.462 153.188 110.414C153.217 110.322 153.227 110.292 153.227 110.292C153.26 110.201 153.272 110.171 153.272 110.171C153.309 110.081 153.322 110.052 153.322 110.052C153.362 109.964 153.376 109.934 153.376 109.934C153.744 109.201 154.232 108.706 154.792 108.193C155.409 107.63 156.565 106.799 157.241 106.285C157.62 105.996 158.138 105.566 158.429 105.235C158.502 105.152 158.537 105.11 158.537 105.11C158.604 105.026 158.635 104.985 158.635 104.985C158.695 104.901 158.709 104.88 158.709 104.88C158.763 104.796 158.776 104.775 158.776 104.775C158.824 104.691 158.835 104.67 158.835 104.67C158.877 104.586 158.886 104.564 158.886 104.564C158.921 104.479 158.929 104.458 158.929 104.458C158.957 104.373 158.962 104.357 158.962 104.357C158.983 104.277 158.986 104.261 158.986 104.261C159.001 104.181 159.004 104.165 159.004 104.165C159.014 104.084 159.015 104.068 159.015 104.068C159.02 103.987 159.02 103.971 159.02 103.971C159.02 103.89 159.02 103.873 159.02 103.873C159.016 103.791 159.013 103.759 159.013 103.759C159.006 103.693 159.001 103.66 159.001 103.66C158.99 103.594 158.984 103.561 158.984 103.561C158.97 103.495 158.963 103.462 158.963 103.462C158.947 103.395 158.938 103.362 158.938 103.362C158.841 103.014 158.692 102.702 158.564 102.443C158.238 101.8 157.743 100.922 157.615 100.245C157.6 100.168 157.593 100.129 157.593 100.129C157.581 100.051 157.575 100.012 157.575 100.012C157.43 98.734 158.063 97.487 158.448 96.314C158.729 95.504 158.973 94.558 158.899 93.718C158.84 92.911 158.489 92.163 158.11 91.539C157.624 90.747 157.068 90.077 156.468 89.383L154.507 87.193C153.829 86.409 153.082 85.501 152.67 84.564C151.567 82.074 153.257 79.861 155.004 78.303C156.583 76.91 158.372 75.363 159.642 73.697C161.268 71.64 162.46 69.256 163.476 66.849C165.107 62.95 166.376 58.777 167.46 54.694C168.868 49.306 170.011 43.713 170.818 38.202C171.326 34.601 171.76 30.86 171.77 27.221C171.763 25.907 171.7 24.558 171.437 23.268C171.198 22.063 170.711 20.81 169.885 19.947C169.796 19.855 169.751 19.81 169.751 19.81C168.698 18.781 167.326 18.349 165.964 18.137C164.114 17.866 162.219 18.007 160.383 18.313C154.75 19.284 149.525 21.885 144.695 24.859C138.773 28.5 133.097 33.114 127.87 37.704C126.521 38.821 125.018 40.006 123.303 40.451C122.072 40.771 120.905 40.633 119.71 40.394C118.009 40.037 115.93 39.376 114.229 39.008C107.93 37.482 101.044 39.195 94.6679 39.047C93.5009 39.003 92.3119 38.896 91.1989 38.527C90.3359 38.246 89.5219 37.722 88.9439 37.108C88.2399 36.366 87.7759 35.559 87.3279 34.666C86.7319 33.456 86.0489 31.794 85.4569 30.581C83.2649 26.082 80.4489 21.865 77.2939 17.986C74.1989 14.208 70.6999 10.689 66.8329 7.69999C64.5099 5.93399 62.0249 4.28 59.2769 3.257C57.4719 2.593 55.2929 2.185 53.5019 3.016C52.0529 3.703 51.1489 4.975 50.4509 6.335C49.5439 8.152 49.0229 10.152 48.6219 12.135C47.8899 15.862 47.6109 19.791 47.4149 23.583C47.0529 32.473 46.8879 41.612 48.8529 50.339C49.3839 52.664 50.1669 54.959 51.1369 57.138C51.6959 58.405 52.6249 60.421 53.0529 61.727C53.4959 63.049 53.7679 64.59 53.2069 65.854C52.8419 66.678 52.3039 67.25 51.7039 67.833C50.9029 68.601 49.7709 69.443 48.9349 70.129C48.1249 70.799 47.2239 71.574 46.7019 72.467C46.6519 72.555 46.6369 72.584 46.6369 72.584C46.5909 72.672 46.5769 72.702 46.5769 72.702C46.5349 72.791 46.5219 72.821 46.5219 72.821C46.4839 72.911 46.4719 72.941 46.4719 72.941C46.4379 73.031 46.4279 73.062 46.4279 73.062C46.3989 73.153 46.3899 73.183 46.3899 73.183C46.3649 73.275 46.3579 73.305 46.3579 73.305C46.3399 73.387 46.3339 73.414 46.3339 73.414C46.3189 73.496 46.3149 73.524 46.3149 73.524C46.3039 73.607 46.3009 73.635 46.3009 73.635C46.2929 73.718 46.2909 73.746 46.2909 73.746C46.2859 73.83 46.2849 73.858 46.2849 73.858C46.2689 74.765 46.5549 75.518 46.8649 76.327C47.3489 77.562 48.0829 78.988 48.0469 80.326C48.0429 80.414 48.0409 80.443 48.0409 80.443C48.0339 80.53 48.0309 80.56 48.0309 80.56C48.0209 80.647 48.0169 80.676 48.0169 80.676C48.0029 80.763 47.9979 80.792 47.9979 80.792C47.9809 80.878 47.9749 80.907 47.9749 80.907C47.9549 80.99 47.9479 81.018 47.9479 81.018C47.9249 81.101 47.9159 81.129 47.9159 81.129C47.4109 82.655 46.0369 83.786 44.9769 84.921C44.6509 85.262 44.2959 85.666 44.0879 85.986C44.0359 86.067 44.0109 86.107 44.0109 86.107C43.9639 86.187 43.9429 86.227 43.9429 86.227C43.9019 86.306 43.8929 86.326 43.8929 86.326C43.8569 86.404 43.8489 86.424 43.8489 86.424C43.8189 86.502 43.8119 86.521 43.8119 86.521C43.7869 86.598 43.7819 86.617 43.7819 86.617C43.7629 86.693 43.7589 86.712 43.7589 86.712C43.7459 86.787 43.7429 86.806 43.7429 86.806C43.7349 86.896 43.7349 86.911 43.7349 86.911C43.7359 87.001 43.7369 87.016 43.7369 87.016C43.7459 87.105 43.7489 87.12 43.7489 87.12C43.7659 87.208 43.7699 87.223 43.7699 87.223C43.7949 87.311 43.7999 87.325 43.7999 87.325C43.8319 87.412 43.8379 87.426 43.8379 87.426C43.8699 87.498 43.8829 87.527 43.8829 87.527C43.9279 87.613 43.9439 87.642 43.9439 87.642C43.9949 87.728 44.0129 87.757 44.0129 87.757C44.3079 88.209 44.7149 88.62 45.0439 89.006C45.2259 89.216 45.4449 89.5 45.5599 89.676C45.6769 89.852 45.7599 90.004 45.8179 90.118C45.8549 90.195 45.8729 90.234 45.8729 90.234C45.9069 90.313 45.9239 90.353 45.9239 90.353C45.9549 90.433 45.9699 90.474 45.9699 90.474C45.9979 90.556 46.0109 90.598 46.0109 90.598C46.0349 90.682 46.0459 90.724 46.0459 90.724C46.0659 90.81 46.0749 90.853 46.0749 90.853C46.0909 90.941 46.0979 90.985 46.0979 90.985C46.1099 91.075 46.1149 91.12 46.1149 91.12C46.1209 91.193 46.1229 91.229 46.1229 91.229C46.1259 91.303 46.1269 91.34 46.1269 91.34C46.1329 92.166 45.8729 92.918 45.6059 93.611C45.2809 94.434 44.8219 95.323 44.4109 96.111C43.9139 97.063 43.0429 98.65 42.6359 99.624C42.2939 100.424 41.9789 101.332 41.9699 102.144C41.9699 102.219 41.9709 102.256 41.9709 102.256C41.9739 102.33 41.9759 102.366 41.9759 102.366C41.9819 102.439 41.9849 102.475 41.9849 102.475C41.9929 102.546 41.9979 102.582 41.9979 102.582C42.0099 102.655 42.0169 102.693 42.0169 102.693C42.0329 102.767 42.0419 102.804 42.0419 102.804C42.0609 102.877 42.0709 102.913 42.0709 102.913C42.0929 102.985 42.1049 103.02 42.1049 103.02C42.1299 103.09 42.1439 103.125 42.1439 103.125C42.1719 103.194 42.1869 103.228 42.1869 103.228C42.2179 103.295 42.2339 103.329 42.2339 103.329C42.2679 103.395 42.2849 103.428 42.2849 103.428C42.3209 103.493 42.3399 103.525 42.3399 103.525C42.4159 103.653 42.4829 103.747 42.5259 103.807C42.7919 104.164 43.0149 104.383 43.2839 104.64Z" stroke="#E9896A" stroke-width="3.5" stroke-miterlimit="10" stroke-linecap="round" stroke-linejoin="round"/>
</svg>
